<?xml version="1.0" encoding="UTF-8"?>
<svg version="1.1" xmlns="http://www.w3.org/2000/svg" width="512" height="512">
<path d="M0,0 L20,0 L20,1 L21,1 L21,2 L22,2 L22,4 L23,4 L23,6 L24,6 L24,8 L25,8 L25,10 L26,10 L26,13 L27,13 L27,14 L28,14 L28,16 L29,16 L29,18 L30,18 L30,21 L31,21 L31,25 L32,25 L32,28 L33,28 L33,30 L34,30 L34,33 L35,33 L35,35 L36,35 L36,37 L37,37 L37,39 L38,39 L38,41 L39,41 L39,43 L40,43 L40,45 L41,45 L41,47 L42,47 L42,49 L43,49 L43,52 L44,52 L44,55 L45,55 L45,57 L46,57 L46,60 L47,60 L47,62 L48,62 L48,65 L49,65 L49,67 L50,67 L50,69 L51,69 L51,72 L52,72 L52,74 L53,74 L53,77 L54,77 L54,79 L55,79 L55,81 L56,81 L56,83 L57,83 L57,85 L58,85 L58,87 L59,87 L59,88 L60,88 L60,90 L61,90 L61,92 L62,92 L62,94 L63,94 L63,95 L64,95 L64,98 L65,98 L65,100 L66,100 L66,103 L67,103 L67,106 L68,106 L68,108 L69,108 L69,110 L70,110 L70,112 L71,112 L71,114 L72,114 L72,116 L73,116 L73,118 L74,118 L74,120 L75,120 L75,123 L76,123 L76,125 L77,125 L77,127 L78,127 L78,130 L79,130 L79,132 L80,132 L80,134 L81,134 L81,135 L82,135 L82,137 L83,137 L83,139 L84,139 L84,140 L85,140 L85,142 L86,142 L86,143 L87,143 L87,145 L88,145 L88,146 L89,146 L89,149 L90,149 L90,151 L91,151 L91,153 L92,153 L92,156 L93,156 L93,158 L94,158 L94,160 L95,160 L95,162 L96,162 L96,163 L97,163 L97,165 L98,165 L98,167 L99,167 L99,168 L100,168 L100,170 L101,170 L101,172 L102,172 L102,174 L103,174 L103,175 L104,175 L104,177 L105,177 L105,180 L106,180 L106,182 L107,182 L107,184 L108,184 L108,186 L109,186 L109,188 L110,188 L110,190 L111,190 L111,192 L112,192 L112,194 L113,194 L113,196 L114,196 L114,198 L115,198 L115,200 L116,200 L116,202 L117,202 L117,204 L118,204 L118,205 L119,205 L119,207 L120,207 L120,209 L121,209 L121,211 L122,211 L122,212 L123,212 L123,214 L124,214 L124,216 L125,216 L125,218 L126,218 L126,220 L127,220 L127,221 L128,221 L128,223 L129,223 L129,225 L130,225 L130,227 L131,227 L131,228 L132,228 L132,230 L133,230 L133,232 L134,232 L134,233 L135,233 L135,235 L136,235 L136,237 L137,237 L137,239 L138,239 L138,240 L139,240 L139,242 L140,242 L140,244 L141,244 L141,245 L142,245 L142,247 L143,247 L143,249 L144,249 L144,251 L145,251 L145,252 L146,252 L146,254 L147,254 L147,256 L148,256 L148,258 L149,258 L149,260 L150,260 L150,262 L151,262 L151,264 L152,264 L152,267 L153,267 L153,269 L154,269 L154,271 L155,271 L155,273 L156,273 L156,276 L157,276 L157,278 L158,278 L158,279 L159,279 L159,281 L160,281 L160,282 L161,282 L161,296 L160,296 L160,300 L159,300 L159,301 L158,301 L158,303 L157,303 L157,305 L156,305 L156,306 L155,306 L155,307 L154,307 L154,308 L153,308 L153,309 L152,309 L152,310 L151,310 L151,311 L149,311 L149,312 L148,312 L148,313 L146,313 L146,314 L144,314 L144,315 L141,315 L141,316 L138,316 L138,317 L135,317 L135,318 L134,318 L134,320 L133,320 L133,321 L132,321 L132,323 L131,323 L131,324 L130,324 L130,326 L129,326 L129,328 L128,328 L128,330 L127,330 L127,331 L126,331 L126,333 L125,333 L125,335 L124,335 L124,337 L123,337 L123,340 L122,340 L122,342 L121,342 L121,345 L120,345 L120,348 L119,348 L119,352 L118,352 L118,358 L117,358 L117,359 L121,359 L121,360 L122,360 L122,361 L123,361 L123,363 L124,363 L124,365 L125,365 L125,366 L126,366 L126,368 L127,368 L127,370 L129,370 L129,371 L131,371 L131,372 L132,372 L132,373 L134,373 L134,374 L136,374 L136,375 L137,375 L137,376 L139,376 L139,377 L140,377 L140,378 L141,378 L141,379 L143,379 L143,381 L144,381 L144,382 L145,382 L145,383 L146,383 L146,384 L147,384 L147,386 L148,386 L148,388 L149,388 L149,391 L150,391 L150,399 L149,399 L149,402 L148,402 L148,404 L147,404 L147,406 L146,406 L146,408 L145,408 L145,409 L144,409 L144,411 L143,411 L143,412 L142,412 L142,413 L141,413 L141,414 L139,414 L139,415 L138,415 L138,416 L136,416 L136,417 L134,417 L134,418 L132,418 L132,419 L129,419 L129,420 L126,420 L126,421 L123,421 L123,422 L119,422 L119,423 L116,423 L116,424 L112,424 L112,425 L108,425 L108,426 L105,426 L105,427 L101,427 L101,428 L97,428 L97,429 L93,429 L93,430 L89,430 L89,431 L85,431 L85,432 L81,432 L81,433 L77,433 L77,434 L73,434 L73,435 L69,435 L69,436 L66,436 L66,437 L62,437 L62,438 L58,438 L58,439 L55,439 L55,440 L51,440 L51,441 L48,441 L48,442 L44,442 L44,443 L41,443 L41,444 L37,444 L37,445 L34,445 L34,446 L30,446 L30,447 L27,447 L27,448 L24,448 L24,449 L20,449 L20,450 L17,450 L17,451 L13,451 L13,452 L9,452 L9,453 L6,453 L6,454 L2,454 L2,455 L-2,455 L-2,456 L-5,456 L-5,457 L-9,457 L-9,458 L-12,458 L-12,459 L-15,459 L-15,460 L-18,460 L-18,461 L-21,461 L-21,462 L-25,462 L-25,463 L-28,463 L-28,468 L-27,468 L-27,475 L-26,475 L-26,482 L-25,482 L-25,489 L-26,489 L-26,494 L-27,494 L-27,496 L-28,496 L-28,497 L-30,497 L-30,498 L-37,498 L-37,497 L-39,497 L-39,496 L-40,496 L-40,495 L-41,495 L-41,494 L-42,494 L-42,492 L-43,492 L-43,491 L-44,491 L-44,490 L-45,490 L-45,488 L-46,488 L-46,486 L-47,486 L-47,485 L-48,485 L-48,483 L-49,483 L-49,486 L-50,486 L-50,489 L-51,489 L-51,491 L-52,491 L-52,493 L-53,493 L-53,494 L-54,494 L-54,496 L-55,496 L-55,497 L-56,497 L-56,498 L-57,498 L-57,499 L-58,499 L-58,500 L-59,500 L-59,501 L-60,501 L-60,502 L-61,502 L-61,503 L-62,503 L-62,504 L-63,504 L-63,505 L-64,505 L-64,506 L-65,506 L-65,507 L-66,507 L-66,508 L-68,508 L-68,509 L-70,509 L-70,510 L-71,510 L-71,511 L-73,511 L-73,512 L-80,512 L-80,511 L-82,511 L-82,509 L-83,509 L-83,507 L-84,507 L-84,500 L-83,500 L-83,496 L-82,496 L-82,492 L-81,492 L-81,489 L-80,489 L-80,482 L-79,482 L-79,475 L-81,475 L-81,476 L-83,476 L-83,477 L-87,477 L-87,478 L-90,478 L-90,479 L-93,479 L-93,480 L-96,480 L-96,481 L-98,481 L-98,482 L-102,482 L-102,483 L-106,483 L-106,484 L-110,484 L-110,485 L-115,485 L-115,486 L-120,486 L-120,487 L-126,487 L-126,488 L-134,488 L-134,489 L-148,489 L-148,488 L-154,488 L-154,487 L-157,487 L-157,486 L-160,486 L-160,485 L-162,485 L-162,484 L-164,484 L-164,483 L-167,483 L-167,482 L-168,482 L-168,481 L-170,481 L-170,480 L-171,480 L-171,479 L-173,479 L-173,478 L-174,478 L-174,477 L-176,477 L-176,476 L-178,476 L-178,475 L-180,475 L-180,474 L-181,474 L-181,473 L-183,473 L-183,472 L-185,472 L-185,471 L-187,471 L-187,470 L-188,470 L-188,469 L-190,469 L-190,468 L-191,468 L-191,467 L-192,467 L-192,466 L-193,466 L-193,464 L-194,464 L-194,463 L-195,463 L-195,462 L-196,462 L-196,461 L-197,461 L-197,460 L-198,460 L-198,459 L-199,459 L-199,457 L-200,457 L-200,456 L-201,456 L-201,454 L-202,454 L-202,453 L-203,453 L-203,450 L-204,450 L-204,448 L-205,448 L-205,445 L-206,445 L-206,444 L-207,444 L-207,442 L-208,442 L-208,440 L-209,440 L-209,438 L-210,438 L-210,435 L-211,435 L-211,433 L-212,433 L-212,430 L-213,430 L-213,427 L-214,427 L-214,424 L-215,424 L-215,421 L-216,421 L-216,418 L-217,418 L-217,415 L-218,415 L-218,412 L-219,412 L-219,408 L-220,408 L-220,405 L-221,405 L-221,401 L-222,401 L-222,398 L-223,398 L-223,394 L-224,394 L-224,391 L-225,391 L-225,388 L-226,388 L-226,386 L-227,386 L-227,384 L-228,384 L-228,383 L-229,383 L-229,382 L-230,382 L-230,381 L-231,381 L-231,379 L-233,379 L-233,378 L-234,378 L-234,377 L-235,377 L-235,376 L-236,376 L-236,375 L-237,375 L-237,374 L-238,374 L-238,373 L-239,373 L-239,372 L-240,372 L-240,371 L-241,371 L-241,369 L-242,369 L-242,368 L-243,368 L-243,366 L-244,366 L-244,364 L-245,364 L-245,362 L-246,362 L-246,359 L-247,359 L-247,356 L-248,356 L-248,348 L-247,348 L-247,344 L-246,344 L-246,339 L-247,339 L-247,337 L-248,337 L-248,335 L-249,335 L-249,333 L-250,333 L-250,331 L-251,331 L-251,329 L-252,329 L-252,328 L-253,328 L-253,326 L-254,326 L-254,324 L-255,324 L-255,322 L-256,322 L-256,320 L-257,320 L-257,318 L-258,318 L-258,316 L-259,316 L-259,314 L-260,314 L-260,312 L-261,312 L-261,309 L-262,309 L-262,307 L-263,307 L-263,305 L-264,305 L-264,302 L-265,302 L-265,300 L-266,300 L-266,298 L-267,298 L-267,295 L-268,295 L-268,292 L-269,292 L-269,289 L-270,289 L-270,286 L-271,286 L-271,282 L-272,282 L-272,278 L-273,278 L-273,274 L-274,274 L-274,270 L-275,270 L-275,266 L-276,266 L-276,262 L-277,262 L-277,260 L-278,260 L-278,258 L-280,258 L-280,257 L-281,257 L-281,256 L-283,256 L-283,255 L-285,255 L-285,254 L-287,254 L-287,253 L-289,253 L-289,252 L-290,252 L-290,251 L-292,251 L-292,250 L-293,250 L-293,249 L-295,249 L-295,248 L-296,248 L-296,247 L-298,247 L-298,246 L-299,246 L-299,245 L-301,245 L-301,244 L-302,244 L-302,243 L-303,243 L-303,241 L-304,241 L-304,239 L-305,239 L-305,237 L-306,237 L-306,231 L-307,231 L-307,212 L-308,212 L-308,208 L-309,208 L-309,205 L-310,205 L-310,202 L-311,202 L-311,200 L-312,200 L-312,198 L-313,198 L-313,196 L-314,196 L-314,194 L-315,194 L-315,192 L-316,192 L-316,190 L-317,190 L-317,188 L-318,188 L-318,186 L-319,186 L-319,183 L-320,183 L-320,180 L-321,180 L-321,178 L-322,178 L-322,176 L-323,176 L-323,175 L-324,175 L-324,173 L-325,173 L-325,171 L-326,171 L-326,168 L-327,168 L-327,165 L-328,165 L-328,163 L-329,163 L-329,148 L-330,148 L-330,139 L-329,139 L-329,130 L-328,130 L-328,125 L-327,125 L-327,122 L-326,122 L-326,119 L-325,119 L-325,116 L-324,116 L-324,113 L-323,113 L-323,110 L-322,110 L-322,107 L-321,107 L-321,105 L-320,105 L-320,102 L-319,102 L-319,99 L-318,99 L-318,96 L-317,96 L-317,94 L-316,94 L-316,92 L-315,92 L-315,90 L-314,90 L-314,89 L-313,89 L-313,87 L-312,87 L-312,86 L-311,86 L-311,84 L-310,84 L-310,83 L-309,83 L-309,82 L-308,82 L-308,81 L-307,81 L-307,79 L-306,79 L-306,78 L-305,78 L-305,77 L-304,77 L-304,76 L-303,76 L-303,75 L-302,75 L-302,74 L-301,74 L-301,73 L-300,73 L-300,72 L-299,72 L-299,71 L-298,71 L-298,70 L-297,70 L-297,69 L-296,69 L-296,68 L-295,68 L-295,67 L-294,67 L-294,66 L-293,66 L-293,65 L-292,65 L-292,64 L-290,64 L-290,63 L-289,63 L-289,62 L-288,62 L-288,61 L-287,61 L-287,60 L-285,60 L-285,59 L-284,59 L-284,58 L-282,58 L-282,57 L-281,57 L-281,56 L-279,56 L-279,55 L-277,55 L-277,54 L-275,54 L-275,53 L-274,53 L-274,52 L-272,52 L-272,51 L-270,51 L-270,50 L-268,50 L-268,49 L-266,49 L-266,48 L-264,48 L-264,47 L-261,47 L-261,46 L-259,46 L-259,45 L-256,45 L-256,44 L-251,44 L-251,43 L-245,43 L-245,42 L-238,42 L-238,41 L-234,41 L-234,40 L-230,40 L-230,39 L-226,39 L-226,38 L-222,38 L-222,37 L-218,37 L-218,36 L-213,36 L-213,35 L-209,35 L-209,34 L-205,34 L-205,33 L-199,33 L-199,32 L-194,32 L-194,31 L-188,31 L-188,30 L-182,30 L-182,29 L-176,29 L-176,28 L-171,28 L-171,27 L-165,27 L-165,26 L-160,26 L-160,25 L-155,25 L-155,24 L-149,24 L-149,23 L-143,23 L-143,22 L-138,22 L-138,21 L-134,21 L-134,20 L-130,20 L-130,19 L-126,19 L-126,18 L-123,18 L-123,17 L-118,17 L-118,16 L-113,16 L-113,15 L-109,15 L-109,14 L-104,14 L-104,13 L-100,13 L-100,12 L-94,12 L-94,11 L-89,11 L-89,10 L-83,10 L-83,9 L-78,9 L-78,8 L-71,8 L-71,7 L-64,7 L-64,6 L-54,6 L-54,5 L-44,5 L-44,4 L-37,4 L-37,3 L-30,3 L-30,2 L-8,2 L-8,1 L0,1 Z M-152,389 L-152,390 L-153,390 L-153,391 L-151,391 L-151,389 Z M67,401 L67,402 L69,402 L69,401 Z M63,402 L63,403 L66,403 L66,402 Z M61,403 L61,404 L63,404 L63,403 Z M5,421 L5,422 L7,422 L7,421 Z M-123,450 L-123,451 L-118,451 L-118,450 Z " fill="#B93737" transform="translate(340,0)"/>
<path d="M0,0 L20,0 L20,1 L21,1 L21,2 L22,2 L22,4 L23,4 L23,6 L24,6 L24,8 L25,8 L25,10 L26,10 L26,13 L27,13 L27,14 L28,14 L28,16 L29,16 L29,18 L30,18 L30,21 L31,21 L31,25 L32,25 L32,28 L33,28 L33,30 L34,30 L34,33 L35,33 L35,35 L36,35 L36,37 L37,37 L37,39 L38,39 L38,41 L39,41 L39,43 L40,43 L40,45 L41,45 L41,47 L42,47 L42,49 L43,49 L43,52 L44,52 L44,55 L45,55 L45,57 L46,57 L46,60 L47,60 L47,62 L48,62 L48,65 L49,65 L49,67 L50,67 L50,69 L51,69 L51,72 L52,72 L52,74 L53,74 L53,77 L54,77 L54,79 L55,79 L55,81 L56,81 L56,83 L57,83 L57,85 L58,85 L58,87 L59,87 L59,88 L60,88 L60,90 L61,90 L61,92 L62,92 L62,94 L63,94 L63,95 L64,95 L64,98 L65,98 L65,100 L66,100 L66,103 L67,103 L67,106 L68,106 L68,108 L69,108 L69,110 L70,110 L70,112 L71,112 L71,114 L72,114 L72,116 L73,116 L73,118 L74,118 L74,120 L75,120 L75,123 L76,123 L76,125 L77,125 L77,127 L78,127 L78,130 L79,130 L79,132 L80,132 L80,134 L81,134 L81,135 L82,135 L82,137 L83,137 L83,139 L84,139 L84,140 L85,140 L85,142 L86,142 L86,143 L87,143 L87,145 L88,145 L88,146 L89,146 L89,149 L90,149 L90,151 L91,151 L91,153 L92,153 L92,156 L93,156 L93,158 L94,158 L94,160 L95,160 L95,162 L96,162 L96,163 L97,163 L97,165 L98,165 L98,167 L99,167 L99,168 L100,168 L100,170 L101,170 L101,172 L102,172 L102,174 L103,174 L103,175 L104,175 L104,177 L105,177 L105,180 L106,180 L106,182 L107,182 L107,184 L108,184 L108,186 L109,186 L109,188 L110,188 L110,190 L111,190 L111,192 L112,192 L112,194 L113,194 L113,196 L114,196 L114,198 L115,198 L115,200 L116,200 L116,202 L117,202 L117,204 L118,204 L118,205 L119,205 L119,207 L120,207 L120,209 L121,209 L121,211 L122,211 L122,212 L123,212 L123,214 L124,214 L124,216 L125,216 L125,218 L126,218 L126,220 L127,220 L127,221 L128,221 L128,223 L129,223 L129,225 L130,225 L130,227 L131,227 L131,228 L132,228 L132,230 L133,230 L133,232 L134,232 L134,233 L135,233 L135,235 L136,235 L136,237 L137,237 L137,239 L138,239 L138,240 L139,240 L139,242 L140,242 L140,244 L141,244 L141,245 L142,245 L142,247 L143,247 L143,249 L144,249 L144,251 L145,251 L145,252 L146,252 L146,254 L147,254 L147,256 L148,256 L148,258 L149,258 L149,260 L150,260 L150,262 L151,262 L151,264 L152,264 L152,267 L153,267 L153,269 L154,269 L154,271 L155,271 L155,273 L156,273 L156,276 L157,276 L157,278 L158,278 L158,279 L159,279 L159,281 L160,281 L160,282 L161,282 L161,296 L160,296 L160,300 L159,300 L159,301 L158,301 L158,303 L157,303 L157,305 L156,305 L156,306 L155,306 L155,307 L154,307 L154,308 L153,308 L153,309 L152,309 L152,310 L151,310 L151,311 L149,311 L149,312 L148,312 L148,313 L146,313 L146,314 L144,314 L144,315 L141,315 L141,316 L138,316 L138,317 L135,317 L135,318 L134,318 L134,320 L133,320 L133,321 L132,321 L132,323 L131,323 L131,324 L130,324 L130,326 L129,326 L129,328 L128,328 L128,330 L127,330 L127,331 L126,331 L126,333 L125,333 L125,335 L124,335 L124,337 L123,337 L123,340 L122,340 L122,342 L121,342 L121,345 L120,345 L120,348 L119,348 L119,352 L118,352 L118,358 L117,358 L117,359 L121,359 L121,360 L122,360 L122,361 L123,361 L123,363 L124,363 L124,365 L125,365 L125,366 L126,366 L126,368 L127,368 L127,370 L129,370 L129,371 L131,371 L131,372 L132,372 L132,373 L134,373 L134,374 L136,374 L136,375 L137,375 L137,376 L139,376 L139,377 L140,377 L140,378 L141,378 L141,379 L143,379 L143,381 L144,381 L144,382 L145,382 L145,383 L146,383 L146,384 L147,384 L147,386 L148,386 L148,388 L149,388 L149,391 L150,391 L150,399 L149,399 L149,402 L148,402 L148,404 L147,404 L147,406 L146,406 L146,408 L145,408 L145,409 L144,409 L144,411 L143,411 L143,412 L142,412 L142,413 L141,413 L141,414 L139,414 L139,415 L138,415 L138,416 L136,416 L136,417 L134,417 L134,418 L132,418 L132,419 L129,419 L129,420 L126,420 L126,421 L123,421 L123,422 L119,422 L119,423 L116,423 L116,424 L112,424 L112,425 L108,425 L108,426 L105,426 L105,427 L101,427 L101,428 L97,428 L97,429 L93,429 L93,430 L89,430 L89,431 L85,431 L85,432 L81,432 L81,433 L77,433 L77,434 L73,434 L73,435 L69,435 L69,436 L66,436 L66,437 L62,437 L62,438 L58,438 L58,439 L55,439 L55,440 L51,440 L51,441 L48,441 L48,442 L44,442 L44,443 L41,443 L41,444 L37,444 L37,445 L34,445 L34,446 L30,446 L30,447 L27,447 L27,448 L24,448 L24,449 L20,449 L20,450 L17,450 L17,451 L13,451 L13,452 L9,452 L9,453 L6,453 L6,454 L2,454 L2,455 L-2,455 L-2,456 L-5,456 L-5,457 L-9,457 L-9,458 L-12,458 L-12,459 L-15,459 L-15,460 L-18,460 L-18,461 L-21,461 L-21,462 L-25,462 L-25,463 L-28,463 L-28,468 L-27,468 L-27,475 L-26,475 L-26,482 L-25,482 L-25,489 L-26,489 L-26,494 L-27,494 L-27,496 L-28,496 L-28,497 L-30,497 L-30,498 L-37,498 L-37,497 L-39,497 L-39,496 L-40,496 L-40,495 L-41,495 L-41,494 L-42,494 L-42,492 L-43,492 L-43,491 L-44,491 L-44,490 L-45,490 L-45,488 L-46,488 L-46,486 L-47,486 L-47,485 L-48,485 L-48,483 L-49,483 L-49,486 L-50,486 L-50,489 L-51,489 L-51,491 L-52,491 L-52,493 L-53,493 L-53,494 L-54,494 L-54,496 L-55,496 L-55,497 L-56,497 L-56,498 L-57,498 L-57,499 L-58,499 L-58,500 L-59,500 L-59,501 L-60,501 L-60,502 L-61,502 L-61,503 L-62,503 L-62,504 L-63,504 L-63,505 L-64,505 L-64,506 L-65,506 L-65,507 L-66,507 L-66,508 L-68,508 L-68,509 L-70,509 L-70,510 L-71,510 L-71,511 L-73,511 L-73,512 L-80,512 L-80,511 L-82,511 L-82,509 L-83,509 L-83,507 L-84,507 L-84,500 L-83,500 L-83,496 L-82,496 L-82,492 L-81,492 L-81,489 L-80,489 L-80,482 L-79,482 L-79,475 L-81,475 L-81,476 L-83,476 L-83,477 L-87,477 L-87,478 L-90,478 L-90,479 L-93,479 L-93,480 L-96,480 L-96,481 L-98,481 L-98,482 L-102,482 L-102,483 L-106,483 L-106,484 L-110,484 L-110,485 L-115,485 L-115,486 L-120,486 L-120,487 L-126,487 L-126,488 L-134,488 L-134,489 L-148,489 L-148,488 L-154,488 L-154,487 L-157,487 L-157,486 L-160,486 L-160,485 L-162,485 L-162,484 L-164,484 L-164,483 L-167,483 L-167,482 L-168,482 L-168,481 L-170,481 L-170,480 L-171,480 L-171,479 L-173,479 L-173,478 L-174,478 L-174,477 L-176,477 L-176,476 L-178,476 L-178,475 L-180,475 L-180,474 L-181,474 L-181,473 L-183,473 L-183,472 L-185,472 L-185,471 L-187,471 L-187,470 L-188,470 L-188,469 L-190,469 L-190,468 L-191,468 L-191,467 L-192,467 L-192,466 L-193,466 L-193,464 L-194,464 L-194,463 L-195,463 L-195,462 L-196,462 L-196,461 L-197,461 L-197,460 L-198,460 L-198,459 L-199,459 L-199,457 L-200,457 L-200,456 L-201,456 L-201,454 L-202,454 L-202,453 L-203,453 L-203,450 L-204,450 L-204,448 L-205,448 L-205,445 L-206,445 L-206,444 L-207,444 L-207,442 L-208,442 L-208,440 L-209,440 L-209,438 L-210,438 L-210,435 L-211,435 L-211,433 L-212,433 L-212,430 L-213,430 L-213,427 L-214,427 L-214,424 L-215,424 L-215,421 L-216,421 L-216,418 L-217,418 L-217,415 L-218,415 L-218,412 L-219,412 L-219,408 L-220,408 L-220,405 L-221,405 L-221,401 L-222,401 L-222,398 L-223,398 L-223,394 L-224,394 L-224,391 L-225,391 L-225,388 L-226,388 L-226,386 L-227,386 L-227,384 L-228,384 L-228,383 L-229,383 L-229,382 L-230,382 L-230,381 L-231,381 L-231,379 L-233,379 L-233,378 L-234,378 L-234,377 L-235,377 L-235,376 L-236,376 L-236,375 L-237,375 L-237,374 L-238,374 L-238,373 L-239,373 L-239,372 L-240,372 L-240,371 L-241,371 L-241,369 L-242,369 L-242,368 L-243,368 L-243,366 L-244,366 L-244,364 L-245,364 L-245,362 L-246,362 L-246,359 L-247,359 L-247,356 L-248,356 L-248,348 L-247,348 L-247,344 L-246,344 L-246,339 L-247,339 L-247,337 L-248,337 L-248,335 L-249,335 L-249,333 L-250,333 L-250,331 L-251,331 L-251,329 L-252,329 L-252,328 L-253,328 L-253,326 L-254,326 L-254,324 L-255,324 L-255,322 L-256,322 L-256,320 L-257,320 L-257,318 L-258,318 L-258,316 L-259,316 L-259,314 L-260,314 L-260,312 L-261,312 L-261,309 L-262,309 L-262,307 L-263,307 L-263,305 L-264,305 L-264,302 L-265,302 L-265,300 L-266,300 L-266,298 L-267,298 L-267,295 L-268,295 L-268,292 L-269,292 L-269,289 L-270,289 L-270,286 L-271,286 L-271,282 L-272,282 L-272,278 L-273,278 L-273,274 L-274,274 L-274,270 L-275,270 L-275,266 L-276,266 L-276,262 L-277,262 L-277,260 L-278,260 L-278,258 L-280,258 L-280,257 L-281,257 L-281,256 L-283,256 L-283,255 L-285,255 L-285,254 L-287,254 L-287,253 L-289,253 L-289,252 L-290,252 L-290,251 L-292,251 L-292,250 L-293,250 L-293,249 L-295,249 L-295,248 L-296,248 L-296,247 L-298,247 L-298,246 L-299,246 L-299,245 L-301,245 L-301,244 L-302,244 L-302,243 L-303,243 L-303,241 L-304,241 L-304,239 L-305,239 L-305,237 L-306,237 L-306,231 L-307,231 L-307,212 L-308,212 L-308,208 L-309,208 L-309,205 L-310,205 L-310,202 L-311,202 L-311,200 L-312,200 L-312,198 L-313,198 L-313,196 L-314,196 L-314,194 L-315,194 L-315,192 L-316,192 L-316,190 L-317,190 L-317,188 L-318,188 L-318,186 L-319,186 L-319,183 L-320,183 L-320,180 L-321,180 L-321,178 L-322,178 L-322,176 L-323,176 L-323,175 L-324,175 L-324,173 L-325,173 L-325,171 L-326,171 L-326,168 L-327,168 L-327,165 L-328,165 L-328,163 L-329,163 L-329,148 L-330,148 L-330,139 L-329,139 L-329,130 L-328,130 L-328,125 L-327,125 L-327,122 L-326,122 L-326,119 L-325,119 L-325,116 L-324,116 L-324,113 L-323,113 L-323,110 L-322,110 L-322,107 L-321,107 L-321,105 L-320,105 L-320,102 L-319,102 L-319,99 L-318,99 L-318,96 L-317,96 L-317,94 L-316,94 L-316,92 L-315,92 L-315,90 L-314,90 L-314,89 L-313,89 L-313,87 L-312,87 L-312,86 L-311,86 L-311,84 L-310,84 L-310,83 L-309,83 L-309,82 L-308,82 L-308,81 L-307,81 L-307,79 L-306,79 L-306,78 L-305,78 L-305,77 L-304,77 L-304,76 L-303,76 L-303,75 L-302,75 L-302,74 L-301,74 L-301,73 L-300,73 L-300,72 L-299,72 L-299,71 L-298,71 L-298,70 L-297,70 L-297,69 L-296,69 L-296,68 L-295,68 L-295,67 L-294,67 L-294,66 L-293,66 L-293,65 L-292,65 L-292,64 L-290,64 L-290,63 L-289,63 L-289,62 L-288,62 L-288,61 L-287,61 L-287,60 L-285,60 L-285,59 L-284,59 L-284,58 L-282,58 L-282,57 L-281,57 L-281,56 L-279,56 L-279,55 L-277,55 L-277,54 L-275,54 L-275,53 L-274,53 L-274,52 L-272,52 L-272,51 L-270,51 L-270,50 L-268,50 L-268,49 L-266,49 L-266,48 L-264,48 L-264,47 L-261,47 L-261,46 L-259,46 L-259,45 L-256,45 L-256,44 L-251,44 L-251,43 L-245,43 L-245,42 L-238,42 L-238,41 L-234,41 L-234,40 L-230,40 L-230,39 L-226,39 L-226,38 L-222,38 L-222,37 L-218,37 L-218,36 L-213,36 L-213,35 L-209,35 L-209,34 L-205,34 L-205,33 L-199,33 L-199,32 L-194,32 L-194,31 L-188,31 L-188,30 L-182,30 L-182,29 L-176,29 L-176,28 L-171,28 L-171,27 L-165,27 L-165,26 L-160,26 L-160,25 L-155,25 L-155,24 L-149,24 L-149,23 L-143,23 L-143,22 L-138,22 L-138,21 L-134,21 L-134,20 L-130,20 L-130,19 L-126,19 L-126,18 L-123,18 L-123,17 L-118,17 L-118,16 L-113,16 L-113,15 L-109,15 L-109,14 L-104,14 L-104,13 L-100,13 L-100,12 L-94,12 L-94,11 L-89,11 L-89,10 L-83,10 L-83,9 L-78,9 L-78,8 L-71,8 L-71,7 L-64,7 L-64,6 L-54,6 L-54,5 L-44,5 L-44,4 L-37,4 L-37,3 L-30,3 L-30,2 L-8,2 L-8,1 L0,1 Z M-35,15 L-35,16 L-39,16 L-39,17 L-46,17 L-46,18 L-52,18 L-52,19 L-59,19 L-59,20 L-66,20 L-66,21 L-74,21 L-74,22 L-81,22 L-81,23 L-85,23 L-85,24 L-92,24 L-92,25 L-97,25 L-97,26 L-100,26 L-100,27 L-106,27 L-106,28 L-109,28 L-109,29 L-114,29 L-114,30 L-118,30 L-118,31 L-123,31 L-123,32 L-127,32 L-127,33 L-129,33 L-129,34 L-133,34 L-133,35 L-139,35 L-139,36 L-143,36 L-143,37 L-152,37 L-152,38 L-158,38 L-158,39 L-164,39 L-164,40 L-172,40 L-172,41 L-177,41 L-177,42 L-183,42 L-183,43 L-190,43 L-190,44 L-196,44 L-196,45 L-200,45 L-200,46 L-206,46 L-206,47 L-210,47 L-210,48 L-214,48 L-214,49 L-218,49 L-218,50 L-222,50 L-222,51 L-226,51 L-226,52 L-230,52 L-230,53 L-233,53 L-233,54 L-240,54 L-240,55 L-248,55 L-248,56 L-251,56 L-251,57 L-255,57 L-255,58 L-257,58 L-257,59 L-259,59 L-259,61 L-258,61 L-258,62 L-257,62 L-257,64 L-256,64 L-256,65 L-255,65 L-255,67 L-254,67 L-254,68 L-253,68 L-253,70 L-252,70 L-252,72 L-251,72 L-251,74 L-250,74 L-250,76 L-249,76 L-249,78 L-248,78 L-248,79 L-247,79 L-247,81 L-246,81 L-246,83 L-245,83 L-245,85 L-244,85 L-244,86 L-243,86 L-243,88 L-242,88 L-242,90 L-241,90 L-241,92 L-240,92 L-240,93 L-239,93 L-239,95 L-238,95 L-238,97 L-237,97 L-237,100 L-236,100 L-236,102 L-235,102 L-235,105 L-234,105 L-234,107 L-233,107 L-233,109 L-232,109 L-232,111 L-231,111 L-231,113 L-230,113 L-230,115 L-229,115 L-229,117 L-228,117 L-228,119 L-227,119 L-227,120 L-226,120 L-226,122 L-225,122 L-225,124 L-224,124 L-224,126 L-223,126 L-223,128 L-222,128 L-222,130 L-221,130 L-221,132 L-220,132 L-220,134 L-219,134 L-219,136 L-218,136 L-218,138 L-217,138 L-217,140 L-216,140 L-216,142 L-215,142 L-215,143 L-214,143 L-214,145 L-213,145 L-213,147 L-212,147 L-212,148 L-211,148 L-211,150 L-210,150 L-210,151 L-209,151 L-209,152 L-208,152 L-208,154 L-207,154 L-207,156 L-206,156 L-206,157 L-205,157 L-205,159 L-204,159 L-204,162 L-203,162 L-203,165 L-202,165 L-202,168 L-201,168 L-201,172 L-200,172 L-200,175 L-199,175 L-199,179 L-198,179 L-198,182 L-197,182 L-197,185 L-196,185 L-196,188 L-195,188 L-195,192 L-194,192 L-194,195 L-193,195 L-193,198 L-192,198 L-192,203 L-191,203 L-191,205 L-190,205 L-190,208 L-189,208 L-189,211 L-188,211 L-188,214 L-187,214 L-187,217 L-186,217 L-186,220 L-185,220 L-185,223 L-184,223 L-184,226 L-183,226 L-183,229 L-182,229 L-182,232 L-181,232 L-181,235 L-180,235 L-180,238 L-179,238 L-179,241 L-178,241 L-178,244 L-177,244 L-177,247 L-176,247 L-176,250 L-175,250 L-175,252 L-174,252 L-174,255 L-173,255 L-173,258 L-172,258 L-172,261 L-171,261 L-171,264 L-170,264 L-170,267 L-169,267 L-169,270 L-168,270 L-168,273 L-167,273 L-167,276 L-166,276 L-166,279 L-165,279 L-165,283 L-164,283 L-164,286 L-163,286 L-163,290 L-162,290 L-162,293 L-161,293 L-161,296 L-160,296 L-160,299 L-159,299 L-159,301 L-158,301 L-158,303 L-157,303 L-157,305 L-156,305 L-156,307 L-155,307 L-155,309 L-154,309 L-154,310 L-153,310 L-153,312 L-152,312 L-152,314 L-151,314 L-151,316 L-150,316 L-150,319 L-149,319 L-149,321 L-148,321 L-148,323 L-147,323 L-147,326 L-146,326 L-146,328 L-145,328 L-145,330 L-144,330 L-144,332 L-143,332 L-143,334 L-142,334 L-142,336 L-141,336 L-141,338 L-140,338 L-140,340 L-139,340 L-139,342 L-138,342 L-138,343 L-137,343 L-137,345 L-136,345 L-136,347 L-135,347 L-135,349 L-134,349 L-134,350 L-133,350 L-133,352 L-132,352 L-132,353 L-131,353 L-131,355 L-130,355 L-130,359 L-131,359 L-131,360 L-132,360 L-132,361 L-136,361 L-136,360 L-137,360 L-137,359 L-138,359 L-138,358 L-139,358 L-139,357 L-140,357 L-140,356 L-141,356 L-141,355 L-142,355 L-142,354 L-143,354 L-143,353 L-144,353 L-144,351 L-145,351 L-145,350 L-146,350 L-146,348 L-147,348 L-147,346 L-148,346 L-148,344 L-149,344 L-149,342 L-150,342 L-150,340 L-151,340 L-151,338 L-152,338 L-152,336 L-153,336 L-153,334 L-154,334 L-154,332 L-155,332 L-155,329 L-156,329 L-156,327 L-157,327 L-157,325 L-158,325 L-158,322 L-159,322 L-159,320 L-160,320 L-160,317 L-161,317 L-161,316 L-162,316 L-162,314 L-163,314 L-163,312 L-164,312 L-164,310 L-166,310 L-166,311 L-168,311 L-168,312 L-169,312 L-169,313 L-170,313 L-170,314 L-172,314 L-172,315 L-173,315 L-173,316 L-175,316 L-175,317 L-176,317 L-176,318 L-178,318 L-178,319 L-179,319 L-179,320 L-180,320 L-180,321 L-181,321 L-181,322 L-182,322 L-182,323 L-183,323 L-183,324 L-184,324 L-184,325 L-185,325 L-185,326 L-186,326 L-186,327 L-187,327 L-187,328 L-188,328 L-188,330 L-189,330 L-189,331 L-190,331 L-190,332 L-191,332 L-191,333 L-192,333 L-192,334 L-193,334 L-193,336 L-194,336 L-194,337 L-195,337 L-195,339 L-196,339 L-196,340 L-197,340 L-197,342 L-198,342 L-198,343 L-199,343 L-199,345 L-200,345 L-200,346 L-201,346 L-201,348 L-202,348 L-202,350 L-203,350 L-203,351 L-204,351 L-204,353 L-205,353 L-205,355 L-206,355 L-206,356 L-207,356 L-207,358 L-208,358 L-208,359 L-209,359 L-209,361 L-210,361 L-210,362 L-211,362 L-211,364 L-212,364 L-212,365 L-213,365 L-213,367 L-214,367 L-214,369 L-215,369 L-215,371 L-216,371 L-216,373 L-217,373 L-217,376 L-218,376 L-218,379 L-217,379 L-217,380 L-216,380 L-216,382 L-215,382 L-215,384 L-214,384 L-214,385 L-213,385 L-213,387 L-212,387 L-212,389 L-211,389 L-211,391 L-210,391 L-210,393 L-209,393 L-209,396 L-208,396 L-208,399 L-207,399 L-207,402 L-206,402 L-206,405 L-205,405 L-205,409 L-204,409 L-204,412 L-203,412 L-203,415 L-202,415 L-202,417 L-201,417 L-201,420 L-200,420 L-200,423 L-199,423 L-199,425 L-198,425 L-198,428 L-197,428 L-197,431 L-196,431 L-196,434 L-195,434 L-195,437 L-194,437 L-194,438 L-193,438 L-193,440 L-192,440 L-192,442 L-191,442 L-191,445 L-192,445 L-192,447 L-193,447 L-193,448 L-194,448 L-194,450 L-193,450 L-193,451 L-192,451 L-192,452 L-191,452 L-191,453 L-190,453 L-190,454 L-189,454 L-189,455 L-188,455 L-188,456 L-187,456 L-187,457 L-186,457 L-186,458 L-185,458 L-185,459 L-184,459 L-184,460 L-182,460 L-182,461 L-181,461 L-181,462 L-180,462 L-180,463 L-178,463 L-178,464 L-176,464 L-176,465 L-173,465 L-173,466 L-171,466 L-171,467 L-169,467 L-169,468 L-168,468 L-168,469 L-166,469 L-166,470 L-164,470 L-164,471 L-163,471 L-163,472 L-161,472 L-161,473 L-159,473 L-159,474 L-157,474 L-157,475 L-154,475 L-154,476 L-152,476 L-152,477 L-147,477 L-147,478 L-131,478 L-131,477 L-122,477 L-122,476 L-117,476 L-117,475 L-112,475 L-112,474 L-106,474 L-106,473 L-103,473 L-103,472 L-100,472 L-100,471 L-97,471 L-97,470 L-94,470 L-94,469 L-89,469 L-89,468 L-82,468 L-82,469 L-80,469 L-80,470 L-79,470 L-79,466 L-80,466 L-80,462 L-81,462 L-81,459 L-82,459 L-82,456 L-83,456 L-83,454 L-84,454 L-84,452 L-86,452 L-86,453 L-91,453 L-91,454 L-96,454 L-96,455 L-100,455 L-100,456 L-104,456 L-104,457 L-108,457 L-108,458 L-111,458 L-111,459 L-117,459 L-117,460 L-135,460 L-135,461 L-143,461 L-143,460 L-151,460 L-151,459 L-154,459 L-154,458 L-158,458 L-158,457 L-160,457 L-160,456 L-162,456 L-162,455 L-164,455 L-164,454 L-165,454 L-165,453 L-167,453 L-167,452 L-168,452 L-168,451 L-169,451 L-169,450 L-170,450 L-170,449 L-171,449 L-171,448 L-172,448 L-172,447 L-173,447 L-173,445 L-174,445 L-174,443 L-175,443 L-175,441 L-176,441 L-176,438 L-177,438 L-177,435 L-178,435 L-178,407 L-177,407 L-177,403 L-176,403 L-176,401 L-175,401 L-175,399 L-174,399 L-174,397 L-173,397 L-173,395 L-172,395 L-172,394 L-171,394 L-171,392 L-170,392 L-170,391 L-169,391 L-169,390 L-168,390 L-168,389 L-167,389 L-167,388 L-166,388 L-166,387 L-165,387 L-165,386 L-164,386 L-164,385 L-163,385 L-163,384 L-162,384 L-162,383 L-161,383 L-161,382 L-159,382 L-159,381 L-158,381 L-158,380 L-156,380 L-156,379 L-155,379 L-155,378 L-153,378 L-153,377 L-151,377 L-151,376 L-149,376 L-149,375 L-147,375 L-147,374 L-146,374 L-146,373 L-144,373 L-144,372 L-142,372 L-142,371 L-139,371 L-139,370 L-137,370 L-137,369 L-134,369 L-134,368 L-132,368 L-132,367 L-129,367 L-129,366 L-127,366 L-127,365 L-124,365 L-124,364 L-122,364 L-122,363 L-119,363 L-119,362 L-116,362 L-116,361 L-113,361 L-113,360 L-109,360 L-109,359 L-106,359 L-106,358 L-98,358 L-98,357 L-94,357 L-94,356 L-91,356 L-91,355 L-87,355 L-87,354 L-83,354 L-83,353 L-80,353 L-80,352 L-76,352 L-76,351 L-73,351 L-73,350 L-68,350 L-68,349 L-58,349 L-58,348 L-55,348 L-55,347 L-47,347 L-47,346 L-41,346 L-41,345 L-35,345 L-35,344 L-30,344 L-30,343 L-25,343 L-25,342 L-21,342 L-21,341 L-17,341 L-17,340 L-13,340 L-13,339 L-11,339 L-11,338 L-8,338 L-8,337 L-6,337 L-6,336 L-3,336 L-3,335 L2,335 L2,334 L8,334 L8,333 L10,333 L10,332 L13,332 L13,331 L16,331 L16,330 L19,330 L19,329 L22,329 L22,328 L25,328 L25,327 L31,327 L31,326 L34,326 L34,325 L40,325 L40,324 L44,324 L44,323 L46,323 L46,322 L50,322 L50,321 L55,321 L55,320 L57,320 L57,319 L60,319 L60,318 L63,318 L63,317 L67,317 L67,316 L72,316 L72,315 L74,315 L74,314 L82,314 L82,313 L93,313 L93,312 L99,312 L99,311 L101,311 L101,310 L103,310 L103,301 L104,301 L104,296 L105,296 L105,292 L106,292 L106,287 L107,287 L107,285 L108,285 L108,283 L109,283 L109,282 L110,282 L110,280 L111,280 L111,279 L112,279 L112,276 L113,276 L113,274 L114,274 L114,272 L115,272 L115,270 L116,270 L116,268 L117,268 L117,267 L118,267 L118,266 L119,266 L119,265 L120,265 L120,264 L121,264 L121,263 L122,263 L122,262 L123,262 L123,261 L124,261 L124,259 L125,259 L125,258 L126,258 L126,257 L127,257 L127,256 L128,256 L128,255 L129,255 L129,253 L128,253 L128,251 L127,251 L127,249 L126,249 L126,247 L125,247 L125,246 L124,246 L124,244 L123,244 L123,242 L122,242 L122,241 L121,241 L121,239 L120,239 L120,237 L119,237 L119,235 L118,235 L118,234 L117,234 L117,232 L116,232 L116,230 L115,230 L115,228 L114,228 L114,226 L113,226 L113,225 L112,225 L112,223 L111,223 L111,221 L110,221 L110,219 L109,219 L109,217 L108,217 L108,216 L107,216 L107,214 L106,214 L106,212 L105,212 L105,210 L104,210 L104,208 L103,208 L103,207 L102,207 L102,205 L101,205 L101,203 L100,203 L100,201 L99,201 L99,199 L98,199 L98,197 L97,197 L97,195 L96,195 L96,193 L95,193 L95,190 L94,190 L94,188 L93,188 L93,185 L92,185 L92,184 L91,184 L91,182 L90,182 L90,180 L89,180 L89,178 L88,178 L88,176 L87,176 L87,175 L86,175 L86,173 L85,173 L85,171 L84,171 L84,170 L83,170 L83,168 L82,168 L82,166 L81,166 L81,164 L80,164 L80,161 L79,161 L79,159 L78,159 L78,157 L77,157 L77,154 L76,154 L76,153 L75,153 L75,151 L74,151 L74,150 L73,150 L73,148 L72,148 L72,147 L71,147 L71,145 L70,145 L70,144 L69,144 L69,142 L68,142 L68,140 L67,140 L67,138 L66,138 L66,136 L65,136 L65,133 L64,133 L64,131 L63,131 L63,128 L62,128 L62,126 L61,126 L61,124 L60,124 L60,122 L59,122 L59,120 L58,120 L58,118 L57,118 L57,116 L56,116 L56,114 L55,114 L55,111 L54,111 L54,108 L53,108 L53,105 L52,105 L52,102 L51,102 L51,100 L50,100 L50,98 L49,98 L49,96 L48,96 L48,95 L47,95 L47,93 L46,93 L46,91 L45,91 L45,89 L44,89 L44,88 L43,88 L43,85 L42,85 L42,83 L41,83 L41,80 L40,80 L40,77 L39,77 L39,74 L38,74 L38,72 L37,72 L37,70 L36,70 L36,67 L35,67 L35,65 L34,65 L34,62 L33,62 L33,59 L32,59 L32,55 L31,55 L31,53 L30,53 L30,51 L29,51 L29,49 L15,49 L15,48 L10,48 L10,47 L7,47 L7,46 L5,46 L5,45 L3,45 L3,44 L0,44 L0,43 L-2,43 L-2,42 L-4,42 L-4,41 L-6,41 L-6,40 L-7,40 L-7,39 L-9,39 L-9,38 L-11,38 L-11,37 L-13,37 L-13,36 L-14,36 L-14,35 L-16,35 L-16,34 L-18,34 L-18,33 L-19,33 L-19,32 L-21,32 L-21,31 L-22,31 L-22,30 L-23,30 L-23,29 L-24,29 L-24,27 L-25,27 L-25,26 L-26,26 L-26,24 L-27,24 L-27,20 L-28,20 L-28,16 L-29,16 L-29,15 Z M-152,389 L-152,390 L-153,390 L-153,391 L-151,391 L-151,389 Z M67,401 L67,402 L69,402 L69,401 Z M63,402 L63,403 L66,403 L66,402 Z M61,403 L61,404 L63,404 L63,403 Z M5,421 L5,422 L7,422 L7,421 Z M-123,450 L-123,451 L-118,451 L-118,450 Z " fill="#030100" transform="translate(340,0)"/>
<path d="M0,0 L2,0 L2,6 L3,6 L3,9 L4,9 L4,11 L5,11 L5,13 L6,13 L6,15 L7,15 L7,17 L8,17 L8,19 L9,19 L9,21 L10,21 L10,23 L11,23 L11,25 L12,25 L12,26 L13,26 L13,28 L14,28 L14,30 L15,30 L15,32 L16,32 L16,34 L17,34 L17,35 L18,35 L18,38 L19,38 L19,40 L20,40 L20,42 L21,42 L21,44 L22,44 L22,47 L23,47 L23,49 L24,49 L24,51 L25,51 L25,53 L26,53 L26,55 L27,55 L27,57 L28,57 L28,59 L29,59 L29,60 L30,60 L30,62 L31,62 L31,64 L32,64 L32,65 L33,65 L33,67 L34,67 L34,69 L35,69 L35,70 L36,70 L36,72 L37,72 L37,74 L38,74 L38,75 L39,75 L39,77 L40,77 L40,79 L41,79 L41,81 L42,81 L42,83 L43,83 L43,85 L44,85 L44,87 L45,87 L45,89 L46,89 L46,90 L47,90 L47,92 L48,92 L48,93 L49,93 L49,95 L50,95 L50,96 L51,96 L51,98 L52,98 L52,100 L53,100 L53,102 L54,102 L54,104 L55,104 L55,107 L56,107 L56,111 L57,111 L57,114 L58,114 L58,117 L59,117 L59,121 L60,121 L60,124 L61,124 L61,127 L62,127 L62,130 L63,130 L63,134 L64,134 L64,137 L65,137 L65,140 L66,140 L66,144 L67,144 L67,147 L68,147 L68,151 L69,151 L69,156 L70,156 L70,158 L71,158 L71,162 L72,162 L72,167 L73,167 L73,169 L74,169 L74,174 L75,174 L75,176 L76,176 L76,181 L77,181 L77,183 L78,183 L78,186 L79,186 L79,190 L80,190 L80,193 L81,193 L81,198 L82,198 L82,200 L83,200 L83,205 L84,205 L84,207 L85,207 L85,210 L86,210 L86,214 L87,214 L87,219 L88,219 L88,221 L89,221 L89,225 L90,225 L90,228 L91,228 L91,231 L92,231 L92,235 L93,235 L93,238 L94,238 L94,241 L95,241 L95,246 L94,246 L94,247 L91,247 L91,248 L88,248 L88,249 L85,249 L85,250 L83,250 L83,251 L82,251 L82,252 L80,252 L80,253 L79,253 L79,254 L78,254 L78,255 L76,255 L76,256 L75,256 L75,257 L74,257 L74,258 L73,258 L73,259 L72,259 L72,261 L71,261 L71,262 L70,262 L70,263 L69,263 L69,264 L68,264 L68,265 L67,265 L67,267 L66,267 L66,268 L65,268 L65,269 L64,269 L64,271 L63,271 L63,272 L62,272 L62,274 L61,274 L61,275 L60,275 L60,276 L59,276 L59,278 L58,278 L58,279 L57,279 L57,281 L56,281 L56,283 L55,283 L55,284 L54,284 L54,286 L53,286 L53,288 L52,288 L52,289 L51,289 L51,291 L50,291 L50,293 L49,293 L49,294 L48,294 L48,296 L47,296 L47,297 L46,297 L46,299 L45,299 L45,300 L44,300 L44,301 L43,301 L43,302 L42,302 L42,303 L41,303 L41,304 L39,304 L39,305 L31,305 L31,304 L30,304 L30,303 L29,303 L29,301 L28,301 L28,300 L27,300 L27,297 L26,297 L26,295 L25,295 L25,289 L26,289 L26,287 L27,287 L27,286 L28,286 L28,284 L29,284 L29,283 L30,283 L30,280 L31,280 L31,274 L32,274 L32,272 L33,272 L33,269 L34,269 L34,267 L35,267 L35,265 L36,265 L36,263 L37,263 L37,260 L38,260 L38,258 L39,258 L39,256 L40,256 L40,254 L41,254 L41,251 L42,251 L42,249 L43,249 L43,247 L44,247 L44,245 L45,245 L45,243 L46,243 L46,242 L47,242 L47,240 L48,240 L48,239 L49,239 L49,238 L50,238 L50,236 L51,236 L51,235 L52,235 L52,234 L53,234 L53,233 L54,233 L54,232 L55,232 L55,231 L56,231 L56,230 L57,230 L57,229 L58,229 L58,228 L59,228 L59,227 L60,227 L60,226 L61,226 L61,225 L62,225 L62,224 L63,224 L63,222 L64,222 L64,221 L65,221 L65,220 L66,220 L66,219 L67,219 L67,218 L68,218 L68,215 L63,215 L63,216 L61,216 L61,217 L60,217 L60,218 L58,218 L58,219 L56,219 L56,220 L55,220 L55,221 L54,221 L54,222 L53,222 L53,223 L52,223 L52,224 L51,224 L51,225 L50,225 L50,226 L49,226 L49,227 L48,227 L48,228 L47,228 L47,230 L46,230 L46,231 L45,231 L45,232 L44,232 L44,233 L43,233 L43,234 L42,234 L42,236 L41,236 L41,237 L40,237 L40,238 L39,238 L39,240 L38,240 L38,241 L37,241 L37,243 L36,243 L36,245 L35,245 L35,247 L34,247 L34,250 L33,250 L33,252 L32,252 L32,254 L31,254 L31,256 L30,256 L30,258 L29,258 L29,261 L28,261 L28,263 L27,263 L27,265 L25,265 L25,263 L24,263 L24,261 L23,261 L23,259 L22,259 L22,258 L21,258 L21,256 L20,256 L20,254 L19,254 L19,252 L18,252 L18,250 L17,250 L17,248 L16,248 L16,246 L15,246 L15,245 L14,245 L14,243 L13,243 L13,241 L12,241 L12,239 L11,239 L11,237 L10,237 L10,235 L9,235 L9,234 L8,234 L8,232 L7,232 L7,230 L6,230 L6,228 L5,228 L5,226 L4,226 L4,224 L3,224 L3,222 L2,222 L2,219 L1,219 L1,217 L0,217 L0,213 L-1,213 L-1,209 L-2,209 L-2,205 L-3,205 L-3,201 L-4,201 L-4,191 L-3,191 L-3,188 L-2,188 L-2,186 L-1,186 L-1,181 L0,181 L0,176 L1,176 L1,173 L2,173 L2,170 L3,170 L3,167 L4,167 L4,165 L5,165 L5,163 L6,163 L6,161 L7,161 L7,159 L8,159 L8,158 L9,158 L9,156 L10,156 L10,154 L11,154 L11,153 L12,153 L12,151 L13,151 L13,150 L14,150 L14,148 L15,148 L15,147 L16,147 L16,146 L17,146 L17,145 L18,145 L18,144 L19,144 L19,143 L20,143 L20,142 L21,142 L21,141 L22,141 L22,140 L23,140 L23,139 L24,139 L24,138 L25,138 L25,137 L26,137 L26,136 L27,136 L27,135 L28,135 L28,134 L29,134 L29,133 L31,133 L31,132 L32,132 L32,131 L33,131 L33,130 L34,130 L34,129 L35,129 L35,128 L37,128 L37,127 L38,127 L38,126 L39,126 L39,125 L41,125 L41,124 L42,124 L42,123 L43,123 L43,122 L45,122 L45,121 L46,121 L46,120 L47,120 L47,119 L48,119 L48,118 L49,118 L49,115 L41,115 L41,116 L39,116 L39,117 L37,117 L37,118 L34,118 L34,119 L33,119 L33,120 L31,120 L31,121 L30,121 L30,122 L29,122 L29,123 L27,123 L27,124 L26,124 L26,125 L25,125 L25,126 L24,126 L24,127 L23,127 L23,128 L21,128 L21,129 L20,129 L20,130 L19,130 L19,131 L18,131 L18,132 L17,132 L17,133 L16,133 L16,134 L14,134 L14,135 L13,135 L13,136 L12,136 L12,137 L11,137 L11,138 L10,138 L10,139 L9,139 L9,140 L8,140 L8,141 L7,141 L7,142 L6,142 L6,143 L5,143 L5,144 L4,144 L4,146 L3,146 L3,147 L2,147 L2,149 L1,149 L1,150 L0,150 L0,152 L-1,152 L-1,154 L-2,154 L-2,156 L-3,156 L-3,157 L-4,157 L-4,159 L-5,159 L-5,161 L-6,161 L-6,163 L-7,163 L-7,167 L-8,167 L-8,169 L-9,169 L-9,174 L-10,174 L-10,178 L-11,178 L-11,183 L-12,183 L-12,186 L-14,186 L-14,185 L-16,185 L-16,184 L-17,184 L-17,183 L-18,183 L-18,182 L-19,182 L-19,181 L-21,181 L-21,179 L-22,179 L-22,178 L-24,178 L-24,177 L-25,177 L-25,176 L-26,176 L-26,175 L-28,175 L-28,173 L-29,173 L-29,172 L-30,172 L-30,161 L-29,161 L-29,152 L-30,152 L-30,149 L-29,149 L-29,147 L-28,147 L-28,145 L-27,145 L-27,142 L-26,142 L-26,140 L-25,140 L-25,138 L-24,138 L-24,136 L-23,136 L-23,135 L-22,135 L-22,133 L-21,133 L-21,131 L-20,131 L-20,129 L-19,129 L-19,128 L-18,128 L-18,126 L-17,126 L-17,124 L-16,124 L-16,123 L-15,123 L-15,121 L-14,121 L-14,120 L-13,120 L-13,118 L-12,118 L-12,117 L-11,117 L-11,115 L-10,115 L-10,114 L-9,114 L-9,112 L-8,112 L-8,111 L-7,111 L-7,109 L-6,109 L-6,108 L-5,108 L-5,107 L-4,107 L-4,106 L-3,106 L-3,105 L-2,105 L-2,104 L0,104 L0,103 L1,103 L1,102 L2,102 L2,101 L4,101 L4,100 L5,100 L5,99 L7,99 L7,98 L9,98 L9,97 L10,97 L10,96 L12,96 L12,95 L14,95 L14,94 L17,94 L17,93 L19,93 L19,92 L21,92 L21,91 L23,91 L23,90 L25,90 L25,89 L27,89 L27,88 L28,88 L28,87 L29,87 L29,85 L30,85 L30,81 L29,81 L29,80 L26,80 L26,81 L25,81 L25,82 L22,82 L22,83 L18,83 L18,84 L15,84 L15,85 L12,85 L12,86 L10,86 L10,87 L8,87 L8,88 L6,88 L6,89 L5,89 L5,90 L3,90 L3,91 L2,91 L2,92 L0,92 L0,93 L-2,93 L-2,94 L-3,94 L-3,95 L-5,95 L-5,96 L-6,96 L-6,97 L-7,97 L-7,98 L-8,98 L-8,99 L-10,99 L-10,100 L-11,100 L-11,101 L-12,101 L-12,103 L-13,103 L-13,104 L-14,104 L-14,105 L-15,105 L-15,106 L-16,106 L-16,108 L-17,108 L-17,109 L-18,109 L-18,111 L-19,111 L-19,112 L-20,112 L-20,114 L-21,114 L-21,115 L-22,115 L-22,117 L-23,117 L-23,118 L-24,118 L-24,120 L-25,120 L-25,122 L-26,122 L-26,124 L-27,124 L-27,126 L-28,126 L-28,127 L-29,127 L-29,129 L-30,129 L-30,131 L-31,131 L-31,133 L-32,133 L-32,135 L-33,135 L-33,137 L-34,137 L-34,141 L-36,141 L-36,139 L-37,139 L-37,137 L-38,137 L-38,135 L-39,135 L-39,133 L-40,133 L-40,132 L-41,132 L-41,130 L-42,130 L-42,128 L-43,128 L-43,127 L-44,127 L-44,125 L-45,125 L-45,124 L-46,124 L-46,122 L-47,122 L-47,121 L-48,121 L-48,116 L-49,116 L-49,115 L-50,115 L-50,113 L-51,113 L-51,111 L-52,111 L-52,102 L-53,102 L-53,98 L-54,98 L-54,72 L-53,72 L-53,70 L-52,70 L-52,65 L-51,65 L-51,62 L-50,62 L-50,59 L-49,59 L-49,57 L-48,57 L-48,54 L-47,54 L-47,51 L-46,51 L-46,48 L-45,48 L-45,45 L-44,45 L-44,42 L-43,42 L-43,39 L-42,39 L-42,38 L-41,38 L-41,36 L-40,36 L-40,34 L-39,34 L-39,33 L-38,33 L-38,31 L-37,31 L-37,30 L-36,30 L-36,28 L-35,28 L-35,27 L-34,27 L-34,26 L-33,26 L-33,25 L-32,25 L-32,24 L-31,24 L-31,23 L-30,23 L-30,22 L-29,22 L-29,20 L-28,20 L-28,19 L-27,19 L-27,18 L-25,18 L-25,17 L-24,17 L-24,16 L-23,16 L-23,15 L-22,15 L-22,14 L-21,14 L-21,13 L-20,13 L-20,12 L-19,12 L-19,11 L-17,11 L-17,10 L-16,10 L-16,9 L-14,9 L-14,8 L-13,8 L-13,7 L-11,7 L-11,6 L-9,6 L-9,5 L-7,5 L-7,4 L-5,4 L-5,3 L-4,3 L-4,2 L-2,2 L-2,1 L0,1 Z " fill="#811D1D" transform="translate(77,61)"/>
<path d="M0,0 L3,0 L3,2 L2,2 L2,3 L1,3 L1,4 L0,4 L0,5 L-1,5 L-1,6 L-2,6 L-2,7 L-3,7 L-3,8 L-4,8 L-4,10 L-5,10 L-5,11 L-6,11 L-6,13 L-7,13 L-7,14 L-8,14 L-8,16 L-9,16 L-9,18 L-10,18 L-10,20 L-11,20 L-11,22 L-12,22 L-12,25 L-13,25 L-13,27 L-14,27 L-14,32 L-15,32 L-15,36 L-16,36 L-16,38 L-17,38 L-17,50 L-16,50 L-16,57 L-15,57 L-15,63 L-14,63 L-14,65 L-13,65 L-13,67 L-12,67 L-12,69 L-13,69 L-13,70 L-15,70 L-15,71 L-17,71 L-17,72 L-21,72 L-21,73 L-24,73 L-24,74 L-27,74 L-27,75 L-30,75 L-30,76 L-34,76 L-34,77 L-37,77 L-37,78 L-41,78 L-41,79 L-44,79 L-44,80 L-47,80 L-47,81 L-51,81 L-51,82 L-55,82 L-55,83 L-59,83 L-59,84 L-61,84 L-61,86 L-63,86 L-63,87 L-66,87 L-66,88 L-68,88 L-68,89 L-71,89 L-71,90 L-74,90 L-74,91 L-77,91 L-77,92 L-79,92 L-79,93 L-82,93 L-82,94 L-85,94 L-85,95 L-89,95 L-89,96 L-92,96 L-92,97 L-94,97 L-94,98 L-99,98 L-99,99 L-103,99 L-103,100 L-106,100 L-106,101 L-111,101 L-111,102 L-117,102 L-117,103 L-119,103 L-119,104 L-123,104 L-123,105 L-127,105 L-127,106 L-132,106 L-132,107 L-134,107 L-134,108 L-138,108 L-138,109 L-142,109 L-142,110 L-145,110 L-145,111 L-146,111 L-146,112 L-151,112 L-151,113 L-154,113 L-154,114 L-156,114 L-156,115 L-158,115 L-158,116 L-159,116 L-159,115 L-160,115 L-160,113 L-161,113 L-161,111 L-162,111 L-162,109 L-163,109 L-163,107 L-164,107 L-164,105 L-165,105 L-165,103 L-166,103 L-166,100 L-167,100 L-167,98 L-165,98 L-165,97 L-160,97 L-160,96 L-156,96 L-156,95 L-149,95 L-149,94 L-143,94 L-143,93 L-138,93 L-138,92 L-133,92 L-133,91 L-128,91 L-128,90 L-123,90 L-123,89 L-118,89 L-118,88 L-114,88 L-114,87 L-111,87 L-111,86 L-107,86 L-107,85 L-101,85 L-101,84 L-99,84 L-99,83 L-95,83 L-95,82 L-90,82 L-90,81 L-88,81 L-88,80 L-83,80 L-83,79 L-81,79 L-81,78 L-78,78 L-78,76 L-79,76 L-79,75 L-87,75 L-87,76 L-90,76 L-90,77 L-94,77 L-94,78 L-98,78 L-98,79 L-103,79 L-103,80 L-109,80 L-109,81 L-112,81 L-112,82 L-115,82 L-115,83 L-120,83 L-120,84 L-124,84 L-124,85 L-129,85 L-129,86 L-133,86 L-133,87 L-138,87 L-138,88 L-145,88 L-145,89 L-151,89 L-151,90 L-155,90 L-155,91 L-161,91 L-161,92 L-166,92 L-166,93 L-171,93 L-171,92 L-172,92 L-172,91 L-174,91 L-174,90 L-180,90 L-180,91 L-183,91 L-183,92 L-185,92 L-185,93 L-191,93 L-191,94 L-195,94 L-195,95 L-198,95 L-198,96 L-201,96 L-201,97 L-203,97 L-203,98 L-206,98 L-206,99 L-208,99 L-208,100 L-212,100 L-212,101 L-219,101 L-219,100 L-221,100 L-221,102 L-222,102 L-222,103 L-226,103 L-226,104 L-231,104 L-231,105 L-234,105 L-234,106 L-238,106 L-238,107 L-241,107 L-241,108 L-244,108 L-244,109 L-247,109 L-247,111 L-242,111 L-242,110 L-233,110 L-233,109 L-228,109 L-228,108 L-223,108 L-223,109 L-222,109 L-222,110 L-218,110 L-218,109 L-214,109 L-214,110 L-213,110 L-213,112 L-212,112 L-212,115 L-211,115 L-211,117 L-210,117 L-210,121 L-209,121 L-209,125 L-212,125 L-212,126 L-219,126 L-219,127 L-222,127 L-222,128 L-226,128 L-226,129 L-228,129 L-228,130 L-232,130 L-232,131 L-245,131 L-245,132 L-247,132 L-247,133 L-265,133 L-265,132 L-268,132 L-268,131 L-270,131 L-270,130 L-273,130 L-273,129 L-275,129 L-275,128 L-278,128 L-278,127 L-280,127 L-280,126 L-281,126 L-281,125 L-283,125 L-283,124 L-284,124 L-284,123 L-285,123 L-285,121 L-286,121 L-286,120 L-287,120 L-287,118 L-288,118 L-288,116 L-289,116 L-289,113 L-290,113 L-290,91 L-289,91 L-289,88 L-288,88 L-288,86 L-287,86 L-287,84 L-286,84 L-286,82 L-285,82 L-285,81 L-284,81 L-284,79 L-283,79 L-283,78 L-282,78 L-282,77 L-281,77 L-281,76 L-280,76 L-280,75 L-279,75 L-279,74 L-278,74 L-278,73 L-276,73 L-276,72 L-273,72 L-273,70 L-272,70 L-272,69 L-271,69 L-271,68 L-270,68 L-270,67 L-269,67 L-269,66 L-268,66 L-268,65 L-266,65 L-266,64 L-265,64 L-265,63 L-263,63 L-263,62 L-261,62 L-261,61 L-259,61 L-259,60 L-257,60 L-257,59 L-254,59 L-254,58 L-251,58 L-251,57 L-249,57 L-249,56 L-246,56 L-246,55 L-244,55 L-244,54 L-241,54 L-241,53 L-239,53 L-239,52 L-236,52 L-236,51 L-234,51 L-234,50 L-231,50 L-231,49 L-229,49 L-229,48 L-226,48 L-226,47 L-222,47 L-222,46 L-218,46 L-218,45 L-214,45 L-214,44 L-213,44 L-213,43 L-208,43 L-208,42 L-202,42 L-202,41 L-198,41 L-198,40 L-194,40 L-194,39 L-192,39 L-192,38 L-184,38 L-184,37 L-175,37 L-175,36 L-169,36 L-169,35 L-160,35 L-160,34 L-155,34 L-155,33 L-147,33 L-147,32 L-143,32 L-143,31 L-139,31 L-139,30 L-134,30 L-134,29 L-132,29 L-132,28 L-127,28 L-127,27 L-125,27 L-125,26 L-118,26 L-118,25 L-112,25 L-112,24 L-107,24 L-107,23 L-103,23 L-103,22 L-100,22 L-100,21 L-97,21 L-97,20 L-93,20 L-93,19 L-90,19 L-90,18 L-83,18 L-83,17 L-79,17 L-79,16 L-72,16 L-72,15 L-69,15 L-69,14 L-65,14 L-65,13 L-60,13 L-60,12 L-56,12 L-56,11 L-53,11 L-53,10 L-48,10 L-48,9 L-44,9 L-44,8 L-28,8 L-28,7 L-22,7 L-22,6 L-19,6 L-19,5 L-15,5 L-15,4 L-11,4 L-11,3 L-6,3 L-6,2 L-4,2 L-4,1 L0,1 Z " fill="#E0DBA8" transform="translate(462,319)"/>
<path d="M0,0 L1,0 L1,1 L2,1 L2,3 L3,3 L3,5 L4,5 L4,7 L5,7 L5,9 L6,9 L6,11 L7,11 L7,13 L8,13 L8,15 L9,15 L9,17 L10,17 L10,19 L11,19 L11,21 L12,21 L12,22 L13,22 L13,23 L14,23 L14,25 L15,25 L15,27 L16,27 L16,28 L17,28 L17,30 L18,30 L18,31 L19,31 L19,32 L20,32 L20,34 L21,34 L21,35 L22,35 L22,37 L23,37 L23,38 L24,38 L24,40 L25,40 L25,42 L26,42 L26,44 L27,44 L27,46 L28,46 L28,49 L29,49 L29,51 L30,51 L30,54 L31,54 L31,56 L32,56 L32,59 L33,59 L33,61 L34,61 L34,62 L35,62 L35,64 L36,64 L36,65 L37,65 L37,67 L38,67 L38,68 L39,68 L39,72 L38,72 L38,73 L31,73 L31,74 L27,74 L27,75 L21,75 L21,76 L16,76 L16,77 L13,77 L13,78 L9,78 L9,79 L5,79 L5,80 L1,80 L1,81 L-3,81 L-3,82 L-8,82 L-8,83 L-12,83 L-12,84 L-15,84 L-15,85 L-20,85 L-20,86 L-24,86 L-24,87 L-29,87 L-29,88 L-34,88 L-34,89 L-42,89 L-42,90 L-48,90 L-48,91 L-54,91 L-54,92 L-60,92 L-60,93 L-66,93 L-66,94 L-70,94 L-70,95 L-75,95 L-75,96 L-91,96 L-91,97 L-95,97 L-95,98 L-101,98 L-101,99 L-106,99 L-106,100 L-110,100 L-110,99 L-111,99 L-111,93 L-112,93 L-112,89 L-113,89 L-113,87 L-114,87 L-114,85 L-115,85 L-115,83 L-116,83 L-116,80 L-117,80 L-117,77 L-118,77 L-118,75 L-119,75 L-119,72 L-120,72 L-120,70 L-121,70 L-121,68 L-122,68 L-122,66 L-123,66 L-123,65 L-124,65 L-124,63 L-125,63 L-125,62 L-126,62 L-126,60 L-127,60 L-127,58 L-128,58 L-128,56 L-129,56 L-129,50 L-130,50 L-130,47 L-131,47 L-131,44 L-132,44 L-132,42 L-133,42 L-133,40 L-134,40 L-134,37 L-135,37 L-135,33 L-136,33 L-136,31 L-137,31 L-137,29 L-138,29 L-138,26 L-139,26 L-139,22 L-129,22 L-129,23 L-127,23 L-127,24 L-124,24 L-124,23 L-123,23 L-123,22 L-117,22 L-117,21 L-113,21 L-113,20 L-106,20 L-106,19 L-102,19 L-102,18 L-97,18 L-97,17 L-92,17 L-92,16 L-85,16 L-85,15 L-81,15 L-81,14 L-76,14 L-76,13 L-71,13 L-71,12 L-66,12 L-66,11 L-59,11 L-59,10 L-55,10 L-55,9 L-48,9 L-48,8 L-41,8 L-41,7 L-35,7 L-35,6 L-31,6 L-31,5 L-25,5 L-25,4 L-21,4 L-21,3 L-19,3 L-19,2 L-15,2 L-15,1 L0,1 Z " fill="#E8A8A8" transform="translate(321,72)"/>
<path d="M0,0 L1,0 L1,2 L0,2 L0,11 L-2,11 L-2,12 L-4,12 L-4,13 L-10,13 L-10,14 L-21,14 L-21,15 L-29,15 L-29,16 L-31,16 L-31,17 L-36,17 L-36,18 L-40,18 L-40,19 L-43,19 L-43,20 L-46,20 L-46,21 L-48,21 L-48,22 L-53,22 L-53,23 L-57,23 L-57,24 L-59,24 L-59,25 L-63,25 L-63,26 L-69,26 L-69,27 L-72,27 L-72,28 L-78,28 L-78,29 L-81,29 L-81,30 L-84,30 L-84,31 L-87,31 L-87,32 L-90,32 L-90,33 L-93,33 L-93,34 L-95,34 L-95,35 L-101,35 L-101,36 L-106,36 L-106,37 L-109,37 L-109,38 L-111,38 L-111,39 L-114,39 L-114,40 L-116,40 L-116,41 L-120,41 L-120,42 L-124,42 L-124,43 L-128,43 L-128,44 L-133,44 L-133,45 L-138,45 L-138,46 L-144,46 L-144,47 L-150,47 L-150,48 L-158,48 L-158,49 L-161,49 L-161,50 L-171,50 L-171,51 L-176,51 L-176,52 L-179,52 L-179,53 L-183,53 L-183,54 L-186,54 L-186,55 L-190,55 L-190,56 L-194,56 L-194,57 L-197,57 L-197,58 L-201,58 L-201,59 L-209,59 L-209,60 L-212,60 L-212,61 L-216,61 L-216,62 L-219,62 L-219,63 L-222,63 L-222,64 L-225,64 L-225,65 L-227,65 L-227,66 L-230,66 L-230,67 L-232,67 L-232,68 L-235,68 L-235,69 L-237,69 L-237,70 L-240,70 L-240,71 L-242,71 L-242,72 L-245,72 L-245,73 L-247,73 L-247,74 L-249,74 L-249,75 L-250,75 L-250,76 L-252,76 L-252,77 L-254,77 L-254,78 L-256,78 L-256,79 L-258,79 L-258,80 L-259,80 L-259,81 L-261,81 L-261,82 L-262,82 L-262,83 L-264,83 L-264,84 L-265,84 L-265,85 L-266,85 L-266,86 L-267,86 L-267,87 L-268,87 L-268,88 L-269,88 L-269,89 L-270,89 L-270,90 L-271,90 L-271,91 L-272,91 L-272,92 L-273,92 L-273,93 L-274,93 L-274,95 L-275,95 L-275,96 L-276,96 L-276,98 L-277,98 L-277,100 L-278,100 L-278,102 L-279,102 L-279,104 L-280,104 L-280,108 L-281,108 L-281,136 L-280,136 L-280,139 L-279,139 L-279,142 L-278,142 L-278,144 L-277,144 L-277,146 L-276,146 L-276,148 L-275,148 L-275,149 L-274,149 L-274,150 L-273,150 L-273,151 L-272,151 L-272,152 L-271,152 L-271,153 L-270,153 L-270,154 L-268,154 L-268,155 L-267,155 L-267,156 L-265,156 L-265,157 L-263,157 L-263,158 L-261,158 L-261,159 L-257,159 L-257,160 L-254,160 L-254,161 L-246,161 L-246,162 L-238,162 L-238,161 L-220,161 L-220,160 L-214,160 L-214,159 L-211,159 L-211,158 L-207,158 L-207,157 L-203,157 L-203,156 L-199,156 L-199,155 L-194,155 L-194,154 L-189,154 L-189,153 L-187,153 L-187,155 L-186,155 L-186,157 L-185,157 L-185,160 L-184,160 L-184,163 L-183,163 L-183,167 L-182,167 L-182,171 L-183,171 L-183,170 L-185,170 L-185,169 L-192,169 L-192,170 L-197,170 L-197,171 L-200,171 L-200,172 L-203,172 L-203,173 L-206,173 L-206,174 L-209,174 L-209,175 L-215,175 L-215,176 L-220,176 L-220,177 L-225,177 L-225,178 L-234,178 L-234,179 L-250,179 L-250,178 L-255,178 L-255,177 L-257,177 L-257,176 L-260,176 L-260,175 L-262,175 L-262,174 L-264,174 L-264,173 L-266,173 L-266,172 L-267,172 L-267,171 L-269,171 L-269,170 L-271,170 L-271,169 L-272,169 L-272,168 L-274,168 L-274,167 L-276,167 L-276,166 L-279,166 L-279,165 L-281,165 L-281,164 L-283,164 L-283,163 L-284,163 L-284,162 L-285,162 L-285,161 L-287,161 L-287,160 L-288,160 L-288,159 L-289,159 L-289,158 L-290,158 L-290,157 L-291,157 L-291,156 L-292,156 L-292,155 L-293,155 L-293,154 L-294,154 L-294,153 L-295,153 L-295,152 L-296,152 L-296,151 L-297,151 L-297,149 L-296,149 L-296,148 L-295,148 L-295,146 L-294,146 L-294,143 L-295,143 L-295,141 L-296,141 L-296,139 L-297,139 L-297,138 L-298,138 L-298,135 L-299,135 L-299,132 L-300,132 L-300,129 L-301,129 L-301,126 L-302,126 L-302,124 L-303,124 L-303,121 L-304,121 L-304,118 L-305,118 L-305,116 L-306,116 L-306,113 L-307,113 L-307,110 L-308,110 L-308,106 L-309,106 L-309,103 L-310,103 L-310,100 L-311,100 L-311,97 L-312,97 L-312,94 L-313,94 L-313,92 L-314,92 L-314,90 L-315,90 L-315,88 L-316,88 L-316,86 L-317,86 L-317,85 L-318,85 L-318,83 L-319,83 L-319,81 L-320,81 L-320,80 L-321,80 L-321,77 L-320,77 L-320,74 L-319,74 L-319,72 L-318,72 L-318,70 L-317,70 L-317,68 L-316,68 L-316,66 L-315,66 L-315,65 L-314,65 L-314,63 L-313,63 L-313,62 L-312,62 L-312,60 L-311,60 L-311,59 L-310,59 L-310,57 L-309,57 L-309,56 L-308,56 L-308,54 L-307,54 L-307,52 L-306,52 L-306,51 L-305,51 L-305,49 L-304,49 L-304,47 L-303,47 L-303,46 L-302,46 L-302,44 L-301,44 L-301,43 L-300,43 L-300,41 L-299,41 L-299,40 L-298,40 L-298,38 L-297,38 L-297,37 L-296,37 L-296,35 L-295,35 L-295,34 L-294,34 L-294,33 L-293,33 L-293,32 L-292,32 L-292,31 L-291,31 L-291,29 L-290,29 L-290,28 L-289,28 L-289,27 L-288,27 L-288,26 L-287,26 L-287,25 L-286,25 L-286,24 L-285,24 L-285,23 L-284,23 L-284,22 L-283,22 L-283,21 L-282,21 L-282,20 L-281,20 L-281,19 L-279,19 L-279,18 L-278,18 L-278,17 L-276,17 L-276,16 L-275,16 L-275,15 L-273,15 L-273,14 L-272,14 L-272,13 L-271,13 L-271,12 L-269,12 L-269,11 L-267,11 L-267,13 L-266,13 L-266,15 L-265,15 L-265,17 L-264,17 L-264,18 L-263,18 L-263,21 L-262,21 L-262,23 L-261,23 L-261,26 L-260,26 L-260,28 L-259,28 L-259,30 L-258,30 L-258,33 L-257,33 L-257,35 L-256,35 L-256,37 L-255,37 L-255,39 L-254,39 L-254,41 L-253,41 L-253,43 L-252,43 L-252,45 L-251,45 L-251,47 L-250,47 L-250,49 L-249,49 L-249,51 L-248,51 L-248,52 L-247,52 L-247,54 L-246,54 L-246,55 L-245,55 L-245,56 L-244,56 L-244,57 L-243,57 L-243,58 L-242,58 L-242,59 L-241,59 L-241,60 L-240,60 L-240,61 L-239,61 L-239,62 L-235,62 L-235,61 L-234,61 L-234,60 L-233,60 L-233,56 L-234,56 L-234,54 L-235,54 L-235,53 L-236,53 L-236,51 L-237,51 L-237,50 L-238,50 L-238,48 L-239,48 L-239,46 L-235,46 L-235,47 L-234,47 L-234,48 L-233,48 L-233,49 L-232,49 L-232,51 L-228,51 L-228,50 L-225,50 L-225,49 L-220,49 L-220,48 L-218,48 L-218,47 L-213,47 L-213,46 L-211,46 L-211,45 L-208,45 L-208,44 L-205,44 L-205,43 L-214,43 L-214,44 L-217,44 L-217,45 L-219,45 L-219,46 L-221,46 L-221,43 L-220,43 L-220,42 L-218,42 L-218,41 L-216,41 L-216,40 L-210,40 L-210,39 L-207,39 L-207,38 L-203,38 L-203,37 L-199,37 L-199,36 L-195,36 L-195,35 L-191,35 L-191,34 L-185,34 L-185,33 L-182,33 L-182,32 L-177,32 L-177,31 L-172,31 L-172,30 L-161,30 L-161,29 L-155,29 L-155,28 L-151,28 L-151,27 L-146,27 L-146,26 L-140,26 L-140,25 L-135,25 L-135,24 L-130,24 L-130,23 L-128,23 L-128,22 L-122,22 L-122,21 L-118,21 L-118,20 L-114,20 L-114,19 L-110,19 L-110,18 L-106,18 L-106,17 L-101,17 L-101,16 L-98,16 L-98,15 L-92,15 L-92,14 L-81,14 L-81,13 L-65,13 L-65,12 L-61,12 L-61,11 L-56,11 L-56,10 L-51,10 L-51,9 L-48,9 L-48,8 L-43,8 L-43,7 L-28,7 L-28,8 L-20,8 L-20,7 L-15,7 L-15,6 L-13,6 L-13,5 L-10,5 L-10,4 L-8,4 L-8,3 L-6,3 L-6,2 L-4,2 L-4,1 L0,1 Z " fill="#801D1D" transform="translate(443,299)"/>
<path d="M0,0 L2,0 L2,6 L3,6 L3,9 L4,9 L4,11 L5,11 L5,13 L6,13 L6,15 L7,15 L7,17 L8,17 L8,19 L9,19 L9,21 L10,21 L10,23 L11,23 L11,25 L12,25 L12,26 L13,26 L13,28 L14,28 L14,30 L15,30 L15,32 L16,32 L16,34 L17,34 L17,35 L18,35 L18,38 L19,38 L19,40 L20,40 L20,42 L21,42 L21,44 L22,44 L22,47 L23,47 L23,49 L24,49 L24,51 L25,51 L25,53 L26,53 L26,55 L27,55 L27,57 L28,57 L28,59 L29,59 L29,60 L30,60 L30,62 L31,62 L31,64 L32,64 L32,65 L33,65 L33,67 L34,67 L34,69 L35,69 L35,70 L36,70 L36,72 L37,72 L37,74 L38,74 L38,75 L39,75 L39,77 L40,77 L40,79 L41,79 L41,80 L36,80 L36,81 L33,81 L33,82 L30,82 L30,81 L29,81 L29,80 L26,80 L26,81 L25,81 L25,82 L22,82 L22,83 L18,83 L18,84 L15,84 L15,85 L12,85 L12,86 L10,86 L10,87 L8,87 L8,88 L6,88 L6,89 L5,89 L5,90 L3,90 L3,91 L2,91 L2,92 L0,92 L0,93 L-2,93 L-2,94 L-3,94 L-3,95 L-5,95 L-5,96 L-6,96 L-6,97 L-7,97 L-7,98 L-8,98 L-8,99 L-10,99 L-10,100 L-11,100 L-11,101 L-12,101 L-12,103 L-13,103 L-13,104 L-14,104 L-14,105 L-15,105 L-15,106 L-16,106 L-16,108 L-17,108 L-17,109 L-18,109 L-18,111 L-19,111 L-19,112 L-20,112 L-20,114 L-21,114 L-21,115 L-22,115 L-22,117 L-23,117 L-23,118 L-24,118 L-24,120 L-25,120 L-25,122 L-26,122 L-26,124 L-27,124 L-27,126 L-28,126 L-28,127 L-29,127 L-29,129 L-30,129 L-30,131 L-31,131 L-31,133 L-32,133 L-32,135 L-33,135 L-33,137 L-34,137 L-34,141 L-36,141 L-36,139 L-37,139 L-37,137 L-38,137 L-38,135 L-39,135 L-39,133 L-40,133 L-40,132 L-41,132 L-41,130 L-42,130 L-42,128 L-43,128 L-43,127 L-44,127 L-44,125 L-45,125 L-45,124 L-46,124 L-46,122 L-47,122 L-47,121 L-48,121 L-48,116 L-49,116 L-49,115 L-50,115 L-50,113 L-51,113 L-51,111 L-52,111 L-52,102 L-53,102 L-53,98 L-54,98 L-54,72 L-53,72 L-53,70 L-52,70 L-52,65 L-51,65 L-51,62 L-50,62 L-50,59 L-49,59 L-49,57 L-48,57 L-48,54 L-47,54 L-47,51 L-46,51 L-46,48 L-45,48 L-45,45 L-44,45 L-44,42 L-43,42 L-43,39 L-42,39 L-42,38 L-41,38 L-41,36 L-40,36 L-40,34 L-39,34 L-39,33 L-38,33 L-38,31 L-37,31 L-37,30 L-36,30 L-36,28 L-35,28 L-35,27 L-34,27 L-34,26 L-33,26 L-33,25 L-32,25 L-32,24 L-31,24 L-31,23 L-30,23 L-30,22 L-29,22 L-29,20 L-28,20 L-28,19 L-27,19 L-27,18 L-25,18 L-25,17 L-24,17 L-24,16 L-23,16 L-23,15 L-22,15 L-22,14 L-21,14 L-21,13 L-20,13 L-20,12 L-19,12 L-19,11 L-17,11 L-17,10 L-16,10 L-16,9 L-14,9 L-14,8 L-13,8 L-13,7 L-11,7 L-11,6 L-9,6 L-9,5 L-7,5 L-7,4 L-5,4 L-5,3 L-4,3 L-4,2 L-2,2 L-2,1 L0,1 Z " fill="#801D1D" transform="translate(77,61)"/>
<path d="M0,0 L4,0 L4,1 L5,1 L5,2 L6,2 L6,3 L7,3 L7,4 L8,4 L8,5 L9,5 L9,7 L10,7 L10,9 L11,9 L11,10 L12,10 L12,13 L13,13 L13,15 L14,15 L14,17 L15,17 L15,19 L16,19 L16,21 L17,21 L17,23 L18,23 L18,25 L19,25 L19,26 L20,26 L20,28 L21,28 L21,29 L22,29 L22,30 L23,30 L23,32 L24,32 L24,33 L25,33 L25,34 L26,34 L26,36 L27,36 L27,37 L28,37 L28,38 L29,38 L29,40 L30,40 L30,42 L31,42 L31,43 L32,43 L32,45 L33,45 L33,47 L34,47 L34,49 L35,49 L35,52 L36,52 L36,54 L37,54 L37,56 L38,56 L38,59 L39,59 L39,61 L40,61 L40,63 L41,63 L41,65 L42,65 L42,67 L43,67 L43,69 L44,69 L44,70 L45,70 L45,72 L46,72 L46,73 L47,73 L47,75 L48,75 L48,76 L49,76 L49,79 L50,79 L50,87 L49,87 L49,88 L48,88 L48,89 L31,89 L31,90 L26,90 L26,91 L23,91 L23,92 L19,92 L19,93 L13,93 L13,94 L10,94 L10,95 L6,95 L6,96 L2,96 L2,97 L-2,97 L-2,98 L-8,98 L-8,99 L-12,99 L-12,100 L-15,100 L-15,101 L-20,101 L-20,102 L-25,102 L-25,103 L-30,103 L-30,104 L-37,104 L-37,105 L-43,105 L-43,106 L-49,106 L-49,107 L-53,107 L-53,108 L-61,108 L-61,109 L-64,109 L-64,110 L-73,110 L-73,111 L-79,111 L-79,112 L-91,112 L-91,113 L-95,113 L-95,114 L-105,114 L-105,115 L-113,115 L-113,114 L-114,114 L-114,113 L-115,113 L-115,108 L-116,108 L-116,105 L-117,105 L-117,101 L-118,101 L-118,97 L-119,97 L-119,95 L-120,95 L-120,93 L-121,93 L-121,91 L-122,91 L-122,89 L-123,89 L-123,86 L-124,86 L-124,83 L-125,83 L-125,81 L-126,81 L-126,78 L-127,78 L-127,76 L-128,76 L-128,75 L-129,75 L-129,73 L-130,73 L-130,72 L-131,72 L-131,70 L-132,70 L-132,68 L-133,68 L-133,63 L-134,63 L-134,58 L-135,58 L-135,55 L-136,55 L-136,53 L-137,53 L-137,51 L-138,51 L-138,48 L-139,48 L-139,44 L-140,44 L-140,41 L-141,41 L-141,38 L-142,38 L-142,36 L-143,36 L-143,34 L-144,34 L-144,30 L-145,30 L-145,27 L-144,27 L-144,26 L-137,26 L-137,27 L-136,27 L-136,26 L-129,26 L-129,25 L-121,25 L-121,24 L-115,24 L-115,23 L-112,23 L-112,22 L-108,22 L-108,21 L-104,21 L-104,20 L-100,20 L-100,19 L-96,19 L-96,18 L-91,18 L-91,17 L-89,17 L-89,16 L-85,16 L-85,15 L-80,15 L-80,14 L-77,14 L-77,13 L-73,13 L-73,12 L-67,12 L-67,11 L-65,11 L-65,10 L-57,10 L-57,9 L-48,9 L-48,8 L-44,8 L-44,7 L-37,7 L-37,6 L-32,6 L-32,5 L-29,5 L-29,4 L-25,4 L-25,3 L-21,3 L-21,2 L-16,2 L-16,1 L0,1 Z M1,8 L1,9 L-14,9 L-14,10 L-18,10 L-18,11 L-20,11 L-20,12 L-24,12 L-24,13 L-30,13 L-30,14 L-34,14 L-34,15 L-40,15 L-40,16 L-47,16 L-47,17 L-54,17 L-54,18 L-58,18 L-58,19 L-65,19 L-65,20 L-70,20 L-70,21 L-75,21 L-75,22 L-80,22 L-80,23 L-84,23 L-84,24 L-91,24 L-91,25 L-96,25 L-96,26 L-101,26 L-101,27 L-105,27 L-105,28 L-112,28 L-112,29 L-116,29 L-116,30 L-122,30 L-122,31 L-123,31 L-123,32 L-126,32 L-126,31 L-128,31 L-128,30 L-138,30 L-138,34 L-137,34 L-137,37 L-136,37 L-136,39 L-135,39 L-135,41 L-134,41 L-134,45 L-133,45 L-133,48 L-132,48 L-132,50 L-131,50 L-131,52 L-130,52 L-130,55 L-129,55 L-129,58 L-128,58 L-128,64 L-127,64 L-127,66 L-126,66 L-126,68 L-125,68 L-125,70 L-124,70 L-124,71 L-123,71 L-123,73 L-122,73 L-122,74 L-121,74 L-121,76 L-120,76 L-120,78 L-119,78 L-119,80 L-118,80 L-118,83 L-117,83 L-117,85 L-116,85 L-116,88 L-115,88 L-115,91 L-114,91 L-114,93 L-113,93 L-113,95 L-112,95 L-112,97 L-111,97 L-111,101 L-110,101 L-110,107 L-109,107 L-109,108 L-105,108 L-105,107 L-100,107 L-100,106 L-94,106 L-94,105 L-90,105 L-90,104 L-74,104 L-74,103 L-69,103 L-69,102 L-65,102 L-65,101 L-59,101 L-59,100 L-53,100 L-53,99 L-47,99 L-47,98 L-41,98 L-41,97 L-33,97 L-33,96 L-28,96 L-28,95 L-23,95 L-23,94 L-19,94 L-19,93 L-14,93 L-14,92 L-11,92 L-11,91 L-7,91 L-7,90 L-2,90 L-2,89 L2,89 L2,88 L6,88 L6,87 L10,87 L10,86 L14,86 L14,85 L17,85 L17,84 L22,84 L22,83 L28,83 L28,82 L32,82 L32,81 L39,81 L39,80 L40,80 L40,76 L39,76 L39,75 L38,75 L38,73 L37,73 L37,72 L36,72 L36,70 L35,70 L35,69 L34,69 L34,67 L33,67 L33,64 L32,64 L32,62 L31,62 L31,59 L30,59 L30,57 L29,57 L29,54 L28,54 L28,52 L27,52 L27,50 L26,50 L26,48 L25,48 L25,46 L24,46 L24,45 L23,45 L23,43 L22,43 L22,42 L21,42 L21,40 L20,40 L20,39 L19,39 L19,38 L18,38 L18,36 L17,36 L17,35 L16,35 L16,33 L15,33 L15,31 L14,31 L14,30 L13,30 L13,29 L12,29 L12,27 L11,27 L11,25 L10,25 L10,23 L9,23 L9,21 L8,21 L8,19 L7,19 L7,17 L6,17 L6,15 L5,15 L5,13 L4,13 L4,11 L3,11 L3,9 L2,9 L2,8 Z " fill="#080404" transform="translate(320,64)"/>
<path d="M0,0 L5,0 L5,1 L6,1 L6,3 L7,3 L7,5 L8,5 L8,7 L9,7 L9,9 L10,9 L10,10 L11,10 L11,12 L12,12 L12,13 L13,13 L13,15 L14,15 L14,16 L15,16 L15,18 L16,18 L16,20 L17,20 L17,22 L18,22 L18,24 L19,24 L19,27 L20,27 L20,31 L21,31 L21,36 L20,36 L20,37 L19,37 L19,38 L18,38 L18,39 L16,39 L16,40 L11,40 L11,39 L12,39 L12,38 L13,38 L13,35 L5,35 L5,36 L3,36 L3,37 L1,37 L1,38 L-2,38 L-2,39 L-3,39 L-3,40 L-5,40 L-5,41 L-6,41 L-6,42 L-7,42 L-7,43 L-9,43 L-9,44 L-10,44 L-10,45 L-11,45 L-11,46 L-12,46 L-12,47 L-13,47 L-13,48 L-15,48 L-15,49 L-16,49 L-16,50 L-17,50 L-17,51 L-18,51 L-18,52 L-19,52 L-19,53 L-20,53 L-20,54 L-22,54 L-22,55 L-23,55 L-23,56 L-24,56 L-24,57 L-25,57 L-25,58 L-26,58 L-26,59 L-27,59 L-27,60 L-28,60 L-28,61 L-29,61 L-29,62 L-30,62 L-30,63 L-31,63 L-31,64 L-32,64 L-32,66 L-33,66 L-33,67 L-34,67 L-34,69 L-35,69 L-35,70 L-36,70 L-36,72 L-37,72 L-37,74 L-38,74 L-38,76 L-39,76 L-39,77 L-40,77 L-40,79 L-41,79 L-41,81 L-42,81 L-42,83 L-43,83 L-43,87 L-44,87 L-44,89 L-45,89 L-45,94 L-46,94 L-46,98 L-47,98 L-47,103 L-48,103 L-48,106 L-50,106 L-50,105 L-52,105 L-52,104 L-53,104 L-53,103 L-54,103 L-54,102 L-55,102 L-55,101 L-57,101 L-57,99 L-58,99 L-58,98 L-60,98 L-60,97 L-61,97 L-61,96 L-62,96 L-62,95 L-64,95 L-64,93 L-65,93 L-65,92 L-66,92 L-66,81 L-65,81 L-65,72 L-66,72 L-66,69 L-65,69 L-65,67 L-64,67 L-64,65 L-63,65 L-63,62 L-62,62 L-62,60 L-61,60 L-61,58 L-60,58 L-60,56 L-59,56 L-59,55 L-58,55 L-58,53 L-57,53 L-57,51 L-56,51 L-56,49 L-55,49 L-55,48 L-54,48 L-54,46 L-53,46 L-53,44 L-52,44 L-52,43 L-51,43 L-51,41 L-50,41 L-50,40 L-49,40 L-49,38 L-48,38 L-48,37 L-47,37 L-47,35 L-46,35 L-46,34 L-45,34 L-45,32 L-44,32 L-44,31 L-43,31 L-43,29 L-42,29 L-42,28 L-41,28 L-41,27 L-40,27 L-40,26 L-39,26 L-39,25 L-38,25 L-38,24 L-36,24 L-36,23 L-35,23 L-35,22 L-34,22 L-34,21 L-32,21 L-32,20 L-31,20 L-31,19 L-29,19 L-29,18 L-27,18 L-27,17 L-26,17 L-26,16 L-24,16 L-24,15 L-22,15 L-22,14 L-19,14 L-19,13 L-17,13 L-17,12 L-15,12 L-15,11 L-13,11 L-13,10 L-11,10 L-11,9 L-9,9 L-9,8 L-8,8 L-8,7 L-7,7 L-7,5 L-6,5 L-6,2 L-3,2 L-3,1 L0,1 Z " fill="#CA9608" transform="translate(113,141)"/>
<path d="M0,0 L4,0 L4,1 L6,1 L6,2 L7,2 L7,5 L6,5 L6,6 L5,6 L5,8 L4,8 L4,9 L3,9 L3,10 L2,10 L2,11 L1,11 L1,12 L0,12 L0,13 L5,13 L5,12 L9,12 L9,11 L12,11 L12,10 L18,10 L18,9 L24,9 L24,8 L28,8 L28,7 L33,7 L33,6 L35,6 L35,8 L34,8 L34,9 L33,9 L33,10 L30,10 L30,11 L26,11 L26,12 L20,12 L20,13 L17,13 L17,14 L13,14 L13,15 L9,15 L9,16 L4,16 L4,17 L-1,17 L-1,18 L-5,18 L-5,19 L-11,19 L-11,20 L-19,20 L-19,21 L-22,21 L-22,22 L-28,22 L-28,23 L-30,23 L-30,24 L-35,24 L-35,25 L-39,25 L-39,26 L-43,26 L-43,27 L-53,27 L-53,28 L-60,28 L-60,29 L-65,29 L-65,30 L-70,30 L-70,31 L-75,31 L-75,32 L-78,32 L-78,33 L-82,33 L-82,34 L-86,34 L-86,35 L-92,35 L-92,36 L-95,36 L-95,37 L-101,37 L-101,38 L-107,38 L-107,39 L-114,39 L-114,40 L-118,40 L-118,41 L-123,41 L-123,42 L-127,42 L-127,43 L-131,43 L-131,44 L-136,44 L-136,45 L-143,45 L-143,46 L-149,46 L-149,47 L-157,47 L-157,48 L-164,48 L-164,49 L-174,49 L-174,50 L-181,50 L-181,51 L-186,51 L-186,52 L-193,52 L-193,53 L-203,53 L-203,54 L-208,54 L-208,53 L-209,53 L-209,52 L-215,52 L-215,53 L-223,53 L-223,51 L-217,51 L-217,50 L-214,50 L-214,49 L-211,49 L-211,48 L-207,48 L-207,47 L-205,47 L-205,46 L-203,46 L-203,45 L-200,45 L-200,44 L-196,44 L-196,43 L-195,43 L-195,42 L-185,42 L-185,41 L-181,41 L-181,40 L-174,40 L-174,39 L-167,39 L-167,38 L-163,38 L-163,37 L-158,37 L-158,36 L-154,36 L-154,35 L-148,35 L-148,34 L-144,34 L-144,33 L-140,33 L-140,32 L-138,32 L-138,31 L-134,31 L-134,30 L-131,30 L-131,29 L-127,29 L-127,28 L-122,28 L-122,27 L-120,27 L-120,26 L-117,26 L-117,25 L-113,25 L-113,24 L-110,24 L-110,23 L-105,23 L-105,22 L-103,22 L-103,21 L-98,21 L-98,20 L-94,20 L-94,19 L-90,19 L-90,18 L-86,18 L-86,17 L-81,17 L-81,16 L-76,16 L-76,15 L-71,15 L-71,14 L-65,14 L-65,13 L-37,13 L-37,14 L-35,14 L-35,13 L-32,13 L-32,12 L-29,12 L-29,11 L-27,11 L-27,10 L-24,10 L-24,9 L-22,9 L-22,8 L-19,8 L-19,7 L-16,7 L-16,6 L-13,6 L-13,5 L-11,5 L-11,4 L-8,4 L-8,3 L-5,3 L-5,2 L-3,2 L-3,1 L0,1 Z " fill="#BDB775" transform="translate(407,359)"/>
<path d="M0,0 L5,0 L5,2 L6,2 L6,5 L7,5 L7,9 L8,9 L8,14 L9,14 L9,16 L10,16 L10,20 L11,20 L11,23 L12,23 L12,26 L13,26 L13,30 L14,30 L14,33 L15,33 L15,36 L16,36 L16,41 L15,41 L15,42 L12,42 L12,43 L9,43 L9,44 L6,44 L6,45 L4,45 L4,46 L3,46 L3,47 L1,47 L1,48 L0,48 L0,49 L-1,49 L-1,50 L-3,50 L-3,51 L-4,51 L-4,52 L-5,52 L-5,53 L-6,53 L-6,54 L-7,54 L-7,56 L-8,56 L-8,57 L-9,57 L-9,58 L-10,58 L-10,59 L-11,59 L-11,60 L-12,60 L-12,62 L-13,62 L-13,63 L-14,63 L-14,64 L-15,64 L-15,66 L-16,66 L-16,67 L-17,67 L-17,69 L-18,69 L-18,70 L-19,70 L-19,71 L-20,71 L-20,73 L-21,73 L-21,74 L-22,74 L-22,76 L-23,76 L-23,78 L-24,78 L-24,79 L-25,79 L-25,81 L-26,81 L-26,83 L-27,83 L-27,84 L-28,84 L-28,86 L-29,86 L-29,88 L-30,88 L-30,89 L-31,89 L-31,91 L-32,91 L-32,92 L-33,92 L-33,94 L-34,94 L-34,95 L-35,95 L-35,96 L-36,96 L-36,97 L-37,97 L-37,98 L-38,98 L-38,99 L-40,99 L-40,100 L-48,100 L-48,99 L-49,99 L-49,98 L-50,98 L-50,96 L-51,96 L-51,95 L-52,95 L-52,92 L-53,92 L-53,90 L-54,90 L-54,84 L-53,84 L-53,82 L-52,82 L-52,81 L-51,81 L-51,79 L-50,79 L-50,78 L-49,78 L-49,75 L-48,75 L-48,69 L-47,69 L-47,67 L-46,67 L-46,64 L-45,64 L-45,62 L-44,62 L-44,60 L-43,60 L-43,58 L-42,58 L-42,55 L-41,55 L-41,53 L-40,53 L-40,51 L-39,51 L-39,49 L-38,49 L-38,46 L-37,46 L-37,44 L-36,44 L-36,42 L-35,42 L-35,40 L-34,40 L-34,38 L-33,38 L-33,37 L-32,37 L-32,35 L-31,35 L-31,34 L-30,34 L-30,33 L-29,33 L-29,31 L-28,31 L-28,30 L-27,30 L-27,29 L-26,29 L-26,28 L-25,28 L-25,27 L-24,27 L-24,26 L-23,26 L-23,25 L-22,25 L-22,24 L-21,24 L-21,23 L-20,23 L-20,22 L-19,22 L-19,21 L-18,21 L-18,20 L-17,20 L-17,19 L-16,19 L-16,17 L-15,17 L-15,16 L-14,16 L-14,15 L-13,15 L-13,14 L-12,14 L-12,13 L-11,13 L-11,10 L-12,10 L-12,9 L-11,9 L-11,8 L-10,8 L-10,7 L-8,7 L-8,6 L-7,6 L-7,5 L-6,5 L-6,4 L-4,4 L-4,3 L-3,3 L-3,2 L-1,2 L-1,1 L0,1 Z " fill="#C99608" transform="translate(156,266)"/>
<path d="M0,0 L21,0 L21,2 L15,2 L15,3 L7,3 L7,4 L1,4 L1,5 L-8,5 L-8,6 L-13,6 L-13,7 L-16,7 L-16,8 L-20,8 L-20,9 L-26,9 L-26,10 L-28,10 L-28,11 L-29,11 L-29,15 L-30,15 L-30,16 L-32,16 L-32,17 L-33,17 L-33,18 L-34,18 L-34,19 L-36,19 L-36,20 L-38,20 L-38,21 L-40,21 L-40,22 L-33,22 L-33,21 L-30,21 L-30,20 L-24,20 L-24,19 L-20,19 L-20,18 L-17,18 L-17,17 L-13,17 L-13,16 L-7,16 L-7,15 L-5,15 L-5,14 L-1,14 L-1,13 L2,13 L2,12 L5,12 L5,11 L9,11 L9,10 L13,10 L13,9 L15,9 L15,8 L17,8 L17,10 L16,10 L16,11 L15,11 L15,12 L14,12 L14,13 L12,13 L12,14 L9,14 L9,15 L6,15 L6,16 L3,16 L3,17 L0,17 L0,18 L-2,18 L-2,19 L-7,19 L-7,20 L-11,20 L-11,21 L-15,21 L-15,22 L-19,22 L-19,23 L-22,23 L-22,24 L-28,24 L-28,25 L-31,25 L-31,26 L-35,26 L-35,27 L-42,27 L-42,28 L-47,28 L-47,29 L-51,29 L-51,30 L-56,30 L-56,31 L-61,31 L-61,32 L-68,32 L-68,33 L-72,33 L-72,34 L-79,34 L-79,35 L-83,35 L-83,36 L-88,36 L-88,37 L-94,37 L-94,38 L-99,38 L-99,39 L-104,39 L-104,40 L-109,40 L-109,41 L-116,41 L-116,42 L-120,42 L-120,43 L-124,43 L-124,44 L-129,44 L-129,45 L-133,45 L-133,46 L-138,46 L-138,47 L-142,47 L-142,48 L-148,48 L-148,49 L-155,49 L-155,50 L-162,50 L-162,51 L-168,51 L-168,52 L-173,52 L-173,50 L-172,50 L-172,49 L-169,49 L-169,48 L-164,48 L-164,47 L-155,47 L-155,46 L-152,46 L-152,45 L-154,45 L-154,44 L-155,44 L-155,43 L-156,43 L-156,38 L-162,38 L-162,39 L-166,39 L-166,40 L-170,40 L-170,41 L-172,41 L-172,42 L-177,42 L-177,43 L-179,43 L-179,44 L-182,44 L-182,45 L-185,45 L-185,46 L-188,46 L-188,44 L-187,44 L-187,43 L-185,43 L-185,42 L-182,42 L-182,41 L-180,41 L-180,40 L-176,40 L-176,39 L-174,39 L-174,38 L-171,38 L-171,37 L-167,37 L-167,36 L-162,36 L-162,35 L-160,35 L-160,34 L-156,34 L-156,33 L-152,33 L-152,32 L-147,32 L-147,31 L-143,31 L-143,30 L-141,30 L-141,29 L-137,29 L-137,28 L-131,28 L-131,27 L-126,27 L-126,26 L-122,26 L-122,25 L-120,25 L-120,24 L-110,24 L-110,25 L-111,25 L-111,26 L-115,26 L-115,27 L-120,27 L-120,28 L-124,28 L-124,29 L-126,29 L-126,30 L-132,30 L-132,31 L-135,31 L-135,32 L-138,32 L-138,33 L-130,33 L-130,32 L-126,32 L-126,31 L-119,31 L-119,30 L-115,30 L-115,29 L-108,29 L-108,28 L-104,28 L-104,27 L-100,27 L-100,26 L-93,26 L-93,25 L-87,25 L-87,24 L-83,24 L-83,23 L-79,23 L-79,20 L-77,20 L-77,19 L-73,19 L-73,18 L-70,18 L-70,17 L-66,17 L-66,16 L-61,16 L-61,15 L-59,15 L-59,14 L-55,14 L-55,13 L-50,13 L-50,12 L-46,12 L-46,11 L-42,11 L-42,10 L-38,10 L-38,9 L-35,9 L-35,8 L-31,8 L-31,7 L-27,7 L-27,6 L-23,6 L-23,5 L-19,5 L-19,4 L-14,4 L-14,3 L-9,3 L-9,2 L-5,2 L-5,1 L0,1 Z " fill="#BBB573" transform="translate(397,340)"/>
<path d="M0,0 L5,0 L5,2 L6,2 L6,5 L7,5 L7,7 L8,7 L8,9 L9,9 L9,11 L10,11 L10,13 L11,13 L11,15 L12,15 L12,17 L13,17 L13,19 L14,19 L14,22 L15,22 L15,25 L16,25 L16,27 L17,27 L17,29 L18,29 L18,32 L19,32 L19,36 L20,36 L20,38 L19,38 L19,39 L17,39 L17,40 L16,40 L16,41 L15,41 L15,45 L16,45 L16,46 L17,46 L17,47 L18,47 L18,48 L22,48 L22,53 L23,53 L23,58 L24,58 L24,61 L25,61 L25,72 L23,72 L23,71 L22,71 L22,70 L21,70 L21,69 L20,69 L20,68 L19,68 L19,67 L18,67 L18,65 L17,65 L17,64 L16,64 L16,62 L15,62 L15,61 L14,61 L14,59 L13,59 L13,58 L12,58 L12,56 L11,56 L11,55 L10,55 L10,53 L9,53 L9,52 L7,52 L7,53 L6,53 L6,62 L5,62 L5,64 L4,64 L4,66 L3,66 L3,68 L2,68 L2,69 L1,69 L1,70 L0,70 L0,71 L-1,71 L-1,72 L-2,72 L-2,73 L-3,73 L-3,74 L-4,74 L-4,75 L-5,75 L-5,76 L-6,76 L-6,77 L-8,77 L-8,78 L-9,78 L-9,79 L-10,79 L-10,80 L-12,80 L-12,81 L-13,81 L-13,82 L-15,82 L-15,79 L-14,79 L-14,74 L-13,74 L-13,66 L-12,66 L-12,52 L-13,52 L-13,47 L-14,47 L-14,43 L-15,43 L-15,40 L-16,40 L-16,37 L-17,37 L-17,34 L-18,34 L-18,31 L-19,31 L-19,29 L-20,29 L-20,26 L-21,26 L-21,23 L-22,23 L-22,20 L-23,20 L-23,17 L-24,17 L-24,15 L-25,15 L-25,13 L-26,13 L-26,12 L-27,12 L-27,10 L-28,10 L-28,8 L-26,8 L-26,7 L-23,7 L-23,6 L-20,6 L-20,5 L-17,5 L-17,4 L-14,4 L-14,3 L-9,3 L-9,2 L-7,2 L-7,1 L0,1 Z " fill="#9B6025" transform="translate(282,418)"/>
<path d="M0,0 L2,0 L2,1 L4,1 L4,2 L5,2 L5,3 L6,3 L6,4 L7,4 L7,5 L8,5 L8,6 L9,6 L9,7 L10,7 L10,8 L11,8 L11,9 L12,9 L12,10 L13,10 L13,11 L15,11 L15,12 L16,12 L16,13 L17,13 L17,14 L18,14 L18,15 L19,15 L19,17 L20,17 L20,18 L21,18 L21,25 L20,25 L20,27 L19,27 L19,28 L18,28 L18,30 L17,30 L17,31 L16,31 L16,32 L15,32 L15,33 L14,33 L14,34 L13,34 L13,35 L10,35 L10,36 L9,36 L9,37 L5,37 L5,38 L3,38 L3,39 L0,39 L0,40 L-3,40 L-3,41 L-6,41 L-6,42 L-9,42 L-9,43 L-12,43 L-12,44 L-14,44 L-14,45 L-19,45 L-19,46 L-22,46 L-22,47 L-26,47 L-26,48 L-30,48 L-30,49 L-34,49 L-34,50 L-36,50 L-36,51 L-40,51 L-40,52 L-44,52 L-44,53 L-48,53 L-48,54 L-52,54 L-52,55 L-56,55 L-56,56 L-61,56 L-61,57 L-64,57 L-64,58 L-69,58 L-69,59 L-71,59 L-71,60 L-76,60 L-76,61 L-79,61 L-79,62 L-82,62 L-82,63 L-86,63 L-86,64 L-89,64 L-89,65 L-92,65 L-92,66 L-95,66 L-95,67 L-98,67 L-98,68 L-100,68 L-100,69 L-105,69 L-105,70 L-109,70 L-109,71 L-113,71 L-113,72 L-115,72 L-115,73 L-120,73 L-120,74 L-124,74 L-124,75 L-126,75 L-126,76 L-131,76 L-131,77 L-134,77 L-134,78 L-137,78 L-137,79 L-140,79 L-140,80 L-144,80 L-144,81 L-147,81 L-147,82 L-149,82 L-149,79 L-150,79 L-150,76 L-151,76 L-151,73 L-152,73 L-152,69 L-151,69 L-151,68 L-140,68 L-140,67 L-137,67 L-137,66 L-133,66 L-133,65 L-129,65 L-129,64 L-125,64 L-125,63 L-121,63 L-121,62 L-117,62 L-117,61 L-113,61 L-113,60 L-109,60 L-109,59 L-105,59 L-105,58 L-99,58 L-99,57 L-95,57 L-95,56 L-93,56 L-93,55 L-90,55 L-90,54 L-86,54 L-86,53 L-82,53 L-82,52 L-79,52 L-79,51 L-75,51 L-75,50 L-73,50 L-73,49 L-70,49 L-70,48 L-67,48 L-67,47 L-64,47 L-64,46 L-62,46 L-62,45 L-59,45 L-59,44 L-56,44 L-56,43 L-53,43 L-53,42 L-50,42 L-50,41 L-48,41 L-48,40 L-45,40 L-45,39 L-42,39 L-42,38 L-39,38 L-39,37 L-36,37 L-36,36 L-33,36 L-33,35 L-30,35 L-30,34 L-25,34 L-25,33 L-23,33 L-23,32 L-20,32 L-20,31 L-17,31 L-17,30 L-14,30 L-14,29 L-11,29 L-11,28 L-8,28 L-8,27 L-5,27 L-5,26 L-3,26 L-3,25 L-1,25 L-1,24 L2,24 L2,23 L5,23 L5,22 L6,22 L6,21 L7,21 L7,20 L8,20 L8,16 L7,16 L7,12 L6,12 L6,11 L5,11 L5,10 L4,10 L4,9 L3,9 L3,8 L2,8 L2,7 L1,7 L1,2 L0,2 Z " fill="#801D1D" transform="translate(458,371)"/>
<path d="M0,0 L1,0 L1,1 L2,1 L2,3 L3,3 L3,4 L4,4 L4,7 L5,7 L5,9 L6,9 L6,11 L7,11 L7,13 L8,13 L8,16 L9,16 L9,18 L10,18 L10,20 L11,20 L11,22 L12,22 L12,23 L13,23 L13,25 L14,25 L14,27 L15,27 L15,28 L16,28 L16,29 L17,29 L17,30 L18,30 L18,32 L17,32 L17,33 L16,33 L16,35 L15,35 L15,36 L14,36 L14,37 L13,37 L13,38 L12,38 L12,39 L11,39 L11,40 L10,40 L10,41 L9,41 L9,42 L6,42 L6,43 L3,43 L3,44 L0,44 L0,45 L-3,45 L-3,46 L-8,46 L-8,47 L-15,47 L-15,48 L-20,48 L-20,42 L-19,42 L-19,33 L-18,33 L-18,30 L-17,30 L-17,28 L-16,28 L-16,26 L-15,26 L-15,25 L-14,25 L-14,23 L-13,23 L-13,20 L-12,20 L-12,17 L-11,17 L-11,14 L-10,14 L-10,13 L-9,13 L-9,12 L-8,12 L-8,10 L-7,10 L-7,9 L-6,9 L-6,8 L-5,8 L-5,7 L-4,7 L-4,5 L-3,5 L-3,4 L-2,4 L-2,3 L-1,3 L-1,1 L0,1 Z " fill="#FAC20A" transform="translate(471,259)"/>
<path d="M0,0 L7,0 L7,1 L8,1 L8,2 L9,2 L9,4 L10,4 L10,8 L11,8 L11,11 L12,11 L12,15 L13,15 L13,20 L14,20 L14,24 L15,24 L15,27 L16,27 L16,29 L17,29 L17,33 L11,33 L11,32 L6,32 L6,31 L0,31 L0,30 L-2,30 L-2,29 L-5,29 L-5,28 L-7,28 L-7,27 L-9,27 L-9,26 L-10,26 L-10,25 L-12,25 L-12,24 L-14,24 L-14,23 L-16,23 L-16,22 L-17,22 L-17,21 L-19,21 L-19,20 L-21,20 L-21,19 L-23,19 L-23,18 L-24,18 L-24,17 L-25,17 L-25,16 L-26,16 L-26,15 L-27,15 L-27,14 L-28,14 L-28,13 L-29,13 L-29,11 L-30,11 L-30,9 L-31,9 L-31,7 L-32,7 L-32,5 L-23,5 L-23,4 L-12,4 L-12,3 L-7,3 L-7,2 L-3,2 L-3,1 L0,1 Z " fill="#F9C10B" transform="translate(348,9)"/>
<path d="M0,0 L2,0 L2,1 L4,1 L4,2 L5,2 L5,3 L6,3 L6,4 L7,4 L7,5 L8,5 L8,6 L9,6 L9,7 L10,7 L10,8 L11,8 L11,9 L12,9 L12,10 L13,10 L13,11 L15,11 L15,12 L16,12 L16,13 L17,13 L17,14 L18,14 L18,15 L19,15 L19,17 L20,17 L20,18 L21,18 L21,25 L20,25 L20,27 L19,27 L19,28 L18,28 L18,30 L17,30 L17,31 L16,31 L16,32 L15,32 L15,33 L14,33 L14,34 L13,34 L13,35 L10,35 L10,36 L8,36 L8,35 L9,35 L9,31 L1,31 L1,32 L-1,32 L-1,33 L-4,33 L-4,34 L-6,34 L-6,35 L-9,35 L-9,36 L-11,36 L-11,37 L-13,37 L-13,38 L-15,38 L-15,39 L-18,39 L-18,40 L-21,40 L-21,41 L-25,41 L-25,42 L-29,42 L-29,43 L-33,43 L-33,44 L-37,44 L-37,45 L-41,45 L-41,46 L-45,46 L-45,47 L-51,47 L-51,48 L-56,48 L-56,49 L-61,49 L-61,50 L-67,50 L-67,51 L-72,51 L-72,52 L-77,52 L-77,51 L-75,51 L-75,50 L-73,50 L-73,49 L-70,49 L-70,48 L-67,48 L-67,47 L-64,47 L-64,46 L-62,46 L-62,45 L-59,45 L-59,44 L-56,44 L-56,43 L-53,43 L-53,42 L-50,42 L-50,41 L-48,41 L-48,40 L-45,40 L-45,39 L-42,39 L-42,38 L-39,38 L-39,37 L-36,37 L-36,36 L-33,36 L-33,35 L-30,35 L-30,34 L-25,34 L-25,33 L-23,33 L-23,32 L-20,32 L-20,31 L-17,31 L-17,30 L-14,30 L-14,29 L-11,29 L-11,28 L-8,28 L-8,27 L-5,27 L-5,26 L-3,26 L-3,25 L-1,25 L-1,24 L2,24 L2,23 L5,23 L5,22 L6,22 L6,21 L7,21 L7,20 L8,20 L8,16 L7,16 L7,12 L6,12 L6,11 L5,11 L5,10 L4,10 L4,9 L3,9 L3,8 L2,8 L2,7 L1,7 L1,2 L0,2 Z " fill="#B33535" transform="translate(458,371)"/>
<path d="M0,0 L4,0 L4,1 L1,1 L1,2 L-3,2 L-3,3 L-7,3 L-7,4 L-11,4 L-11,5 L-16,5 L-16,6 L-20,6 L-20,7 L-22,7 L-22,8 L-27,8 L-27,9 L-31,9 L-31,10 L-34,10 L-34,11 L-38,11 L-38,12 L-40,12 L-40,15 L-44,15 L-44,16 L-48,16 L-48,17 L-54,17 L-54,18 L-61,18 L-61,19 L-65,19 L-65,20 L-69,20 L-69,21 L-76,21 L-76,22 L-80,22 L-80,23 L-87,23 L-87,24 L-91,24 L-91,25 L-99,25 L-99,24 L-96,24 L-96,23 L-93,23 L-93,22 L-87,22 L-87,21 L-85,21 L-85,20 L-81,20 L-81,19 L-76,19 L-76,18 L-72,18 L-72,17 L-71,17 L-71,16 L-81,16 L-81,17 L-83,17 L-83,18 L-87,18 L-87,19 L-92,19 L-92,18 L-93,18 L-93,15 L-92,15 L-92,14 L-91,14 L-91,13 L-86,13 L-86,12 L-84,12 L-84,10 L-88,10 L-88,9 L-80,9 L-80,8 L-71,8 L-71,7 L-65,7 L-65,6 L-56,6 L-56,5 L-51,5 L-51,4 L-43,4 L-43,3 L-39,3 L-39,2 L-35,2 L-35,1 L-33,1 L-33,2 L-15,2 L-15,1 L0,1 Z " fill="#BBB574" transform="translate(358,348)"/>
<path d="M0,0 L2,0 L2,2 L1,2 L1,3 L0,3 L0,4 L-1,4 L-1,5 L-3,5 L-3,6 L-6,6 L-6,7 L-9,7 L-9,8 L-12,8 L-12,9 L-15,9 L-15,10 L-17,10 L-17,11 L-22,11 L-22,12 L-26,12 L-26,13 L-30,13 L-30,14 L-34,14 L-34,15 L-37,15 L-37,16 L-43,16 L-43,17 L-46,17 L-46,18 L-50,18 L-50,19 L-57,19 L-57,20 L-62,20 L-62,21 L-66,21 L-66,22 L-71,22 L-71,23 L-76,23 L-76,24 L-83,24 L-83,25 L-87,25 L-87,26 L-94,26 L-94,27 L-98,27 L-98,28 L-103,28 L-103,29 L-109,29 L-109,30 L-114,30 L-114,31 L-119,31 L-119,32 L-124,32 L-124,33 L-131,33 L-131,34 L-135,34 L-135,35 L-139,35 L-139,36 L-144,36 L-144,37 L-148,37 L-148,38 L-153,38 L-153,39 L-157,39 L-157,40 L-163,40 L-163,41 L-170,41 L-170,42 L-177,42 L-177,43 L-183,43 L-183,44 L-188,44 L-188,42 L-187,42 L-187,41 L-184,41 L-184,40 L-179,40 L-179,39 L-170,39 L-170,38 L-165,38 L-165,37 L-159,37 L-159,36 L-155,36 L-155,35 L-152,35 L-152,34 L-146,34 L-146,33 L-142,33 L-142,32 L-139,32 L-139,31 L-132,31 L-132,30 L-129,30 L-129,29 L-124,29 L-124,28 L-118,28 L-118,27 L-113,27 L-113,26 L-109,26 L-109,25 L-102,25 L-102,24 L-97,24 L-97,23 L-93,23 L-93,22 L-88,22 L-88,21 L-83,21 L-83,20 L-76,20 L-76,19 L-73,19 L-73,18 L-66,18 L-66,17 L-61,17 L-61,16 L-58,16 L-58,15 L-52,15 L-52,14 L-48,14 L-48,13 L-45,13 L-45,12 L-39,12 L-39,11 L-35,11 L-35,10 L-32,10 L-32,9 L-28,9 L-28,8 L-22,8 L-22,7 L-20,7 L-20,6 L-16,6 L-16,5 L-13,5 L-13,4 L-10,4 L-10,3 L-6,3 L-6,2 L-2,2 L-2,1 L0,1 Z " fill="#10100B" transform="translate(412,348)"/>
<path d="M0,0 L4,0 L4,1 L6,1 L6,2 L7,2 L7,6 L6,6 L6,8 L5,8 L5,9 L4,9 L4,10 L3,10 L3,11 L1,11 L1,12 L-1,12 L-1,13 L-5,13 L-5,14 L-7,14 L-7,15 L-13,15 L-13,16 L-16,16 L-16,17 L-22,17 L-22,18 L-25,18 L-25,19 L-30,19 L-30,20 L-34,20 L-34,21 L-39,21 L-39,22 L-43,22 L-43,23 L-49,23 L-49,24 L-53,24 L-53,25 L-56,25 L-56,26 L-60,26 L-60,27 L-66,27 L-66,28 L-70,28 L-70,29 L-76,29 L-76,30 L-81,30 L-81,31 L-89,31 L-89,32 L-93,32 L-93,33 L-98,33 L-98,34 L-102,34 L-102,35 L-105,35 L-105,36 L-111,36 L-111,38 L-112,38 L-112,39 L-113,39 L-113,36 L-114,36 L-114,34 L-112,34 L-112,33 L-107,33 L-107,32 L-103,32 L-103,31 L-96,31 L-96,30 L-90,30 L-90,29 L-85,29 L-85,28 L-80,28 L-80,27 L-75,27 L-75,26 L-70,26 L-70,25 L-65,25 L-65,24 L-61,24 L-61,23 L-58,23 L-58,22 L-54,22 L-54,21 L-48,21 L-48,20 L-46,20 L-46,19 L-42,19 L-42,18 L-37,18 L-37,17 L-35,17 L-35,16 L-30,16 L-30,15 L-28,15 L-28,14 L-25,14 L-25,12 L-26,12 L-26,11 L-34,11 L-34,12 L-37,12 L-37,13 L-41,13 L-41,14 L-45,14 L-45,15 L-50,15 L-50,16 L-52,16 L-52,15 L-51,15 L-51,14 L-48,14 L-48,13 L-45,13 L-45,12 L-42,12 L-42,11 L-39,11 L-39,10 L-35,10 L-35,9 L-31,9 L-31,8 L-27,8 L-27,7 L-23,7 L-23,6 L-17,6 L-17,5 L-15,5 L-15,4 L-11,4 L-11,3 L-7,3 L-7,2 L-3,2 L-3,1 L0,1 Z " fill="#BCB674" transform="translate(409,383)"/>
<path d="M0,0 L3,0 L3,1 L4,1 L4,2 L3,2 L3,3 L2,3 L2,4 L-1,4 L-1,5 L-3,5 L-3,6 L-8,6 L-8,7 L-15,7 L-15,8 L-20,8 L-20,9 L-25,9 L-25,10 L-30,10 L-30,11 L-33,11 L-33,12 L-37,12 L-37,13 L-41,13 L-41,14 L-47,14 L-47,15 L-50,15 L-50,16 L-56,16 L-56,17 L-62,17 L-62,18 L-69,18 L-69,19 L-73,19 L-73,20 L-78,20 L-78,21 L-82,21 L-82,22 L-86,22 L-86,23 L-91,23 L-91,24 L-98,24 L-98,25 L-104,25 L-104,26 L-112,26 L-112,27 L-119,27 L-119,28 L-129,28 L-129,29 L-136,29 L-136,30 L-141,30 L-141,31 L-148,31 L-148,32 L-150,32 L-150,30 L-146,30 L-146,29 L-140,29 L-140,28 L-135,28 L-135,27 L-131,27 L-131,26 L-124,26 L-124,25 L-118,25 L-118,24 L-113,24 L-113,23 L-107,23 L-107,22 L-99,22 L-99,21 L-95,21 L-95,20 L-90,20 L-90,19 L-86,19 L-86,18 L-81,18 L-81,17 L-78,17 L-78,16 L-72,16 L-72,15 L-68,15 L-68,14 L-62,14 L-62,13 L-56,13 L-56,12 L-51,12 L-51,11 L-44,11 L-44,10 L-41,10 L-41,9 L-35,9 L-35,8 L-32,8 L-32,7 L-28,7 L-28,6 L-22,6 L-22,5 L-16,5 L-16,4 L-13,4 L-13,3 L-9,3 L-9,2 L-2,2 L-2,1 L0,1 Z " fill="#13120D" transform="translate(362,380)"/>
<path d="M0,0 L4,0 L4,1 L6,1 L6,2 L7,2 L7,3 L8,3 L8,4 L9,4 L9,5 L10,5 L10,6 L11,6 L11,7 L12,7 L12,8 L13,8 L13,10 L14,10 L14,11 L15,11 L15,12 L16,12 L16,13 L17,13 L17,15 L18,15 L18,16 L19,16 L19,18 L20,18 L20,20 L21,20 L21,21 L22,21 L22,23 L23,23 L23,25 L24,25 L24,27 L25,27 L25,29 L26,29 L26,31 L23,31 L23,29 L22,29 L22,27 L21,27 L21,26 L20,26 L20,24 L19,24 L19,22 L18,22 L18,20 L17,20 L17,19 L16,19 L16,17 L15,17 L15,15 L14,15 L14,14 L13,14 L13,13 L12,13 L12,12 L11,12 L11,11 L10,11 L10,10 L9,10 L9,9 L8,9 L8,8 L7,8 L7,7 L6,7 L6,6 L5,6 L5,5 L3,5 L3,9 L4,9 L4,11 L5,11 L5,14 L6,14 L6,18 L7,18 L7,21 L8,21 L8,24 L9,24 L9,26 L10,26 L10,29 L11,29 L11,31 L12,31 L12,34 L13,34 L13,36 L14,36 L14,38 L15,38 L15,40 L16,40 L16,43 L17,43 L17,45 L18,45 L18,47 L19,47 L19,49 L20,49 L20,51 L21,51 L21,53 L22,53 L22,55 L23,55 L23,57 L24,57 L24,58 L25,58 L25,60 L26,60 L26,61 L27,61 L27,63 L28,63 L28,64 L29,64 L29,65 L30,65 L30,66 L31,66 L31,67 L32,67 L32,69 L34,69 L34,70 L35,70 L35,71 L36,71 L36,72 L37,72 L37,73 L39,73 L39,74 L43,74 L43,67 L42,67 L42,65 L41,65 L41,63 L40,63 L40,58 L39,58 L39,55 L38,55 L38,52 L37,52 L37,49 L36,49 L36,47 L35,47 L35,45 L34,45 L34,43 L35,43 L35,44 L36,44 L36,45 L37,45 L37,47 L38,47 L38,49 L39,49 L39,51 L40,51 L40,53 L41,53 L41,56 L42,56 L42,58 L43,58 L43,61 L44,61 L44,63 L45,63 L45,66 L46,66 L46,69 L47,69 L47,74 L46,74 L46,76 L45,76 L45,77 L39,77 L39,76 L37,76 L37,75 L35,75 L35,74 L34,74 L34,73 L33,73 L33,72 L32,72 L32,71 L31,71 L31,70 L30,70 L30,68 L29,68 L29,67 L28,67 L28,66 L27,66 L27,65 L26,65 L26,63 L25,63 L25,62 L24,62 L24,60 L23,60 L23,58 L22,58 L22,57 L21,57 L21,55 L20,55 L20,53 L19,53 L19,51 L18,51 L18,49 L17,49 L17,47 L16,47 L16,44 L15,44 L15,42 L14,42 L14,40 L13,40 L13,38 L12,38 L12,35 L11,35 L11,33 L10,33 L10,31 L9,31 L9,29 L8,29 L8,27 L7,27 L7,25 L6,25 L6,23 L5,23 L5,21 L4,21 L4,18 L3,18 L3,15 L2,15 L2,13 L1,13 L1,9 L0,9 L0,6 L-1,6 L-1,1 L0,1 Z " fill="#130505" transform="translate(392,167)"/>
<path d="M0,0 L10,0 L10,1 L8,1 L8,2 L2,2 L2,3 L-2,3 L-2,4 L-5,4 L-5,5 L-8,5 L-8,6 L-10,6 L-10,7 L-13,7 L-13,8 L-15,8 L-15,9 L-19,9 L-19,10 L-26,10 L-26,9 L-28,9 L-28,11 L-29,11 L-29,12 L-33,12 L-33,13 L-38,13 L-38,14 L-41,14 L-41,15 L-45,15 L-45,16 L-48,16 L-48,17 L-50,17 L-50,16 L-57,16 L-57,17 L-60,17 L-60,18 L-66,18 L-66,19 L-70,19 L-70,20 L-73,20 L-73,21 L-77,21 L-77,22 L-84,22 L-84,20 L-80,20 L-80,19 L-76,19 L-76,18 L-72,18 L-72,17 L-68,17 L-68,16 L-65,16 L-65,15 L-61,15 L-61,14 L-57,14 L-57,13 L-53,13 L-53,12 L-49,12 L-49,11 L-43,11 L-43,10 L-38,10 L-38,9 L-35,9 L-35,8 L-32,8 L-32,7 L-29,7 L-29,6 L-26,6 L-26,5 L-21,5 L-21,4 L-18,4 L-18,3 L-11,3 L-11,2 L-7,2 L-7,1 L0,1 Z " fill="#B4AE70" transform="translate(269,410)"/>
<path d="M0,0 L6,0 L6,2 L5,2 L5,3 L4,3 L4,4 L2,4 L2,5 L-2,5 L-2,6 L-6,6 L-6,7 L-12,7 L-12,8 L-18,8 L-18,9 L-24,9 L-24,10 L-31,10 L-31,11 L-37,11 L-37,12 L-42,12 L-42,13 L-47,13 L-47,14 L-56,14 L-56,15 L-59,15 L-59,16 L-62,16 L-62,17 L-64,17 L-64,18 L-66,18 L-66,15 L-65,15 L-65,14 L-63,14 L-63,13 L-61,13 L-61,12 L-55,12 L-55,11 L-52,11 L-52,10 L-48,10 L-48,9 L-44,9 L-44,8 L-40,8 L-40,7 L-36,7 L-36,6 L-30,6 L-30,5 L-27,5 L-27,4 L-22,4 L-22,3 L-17,3 L-17,2 L-6,2 L-6,1 L0,1 Z " fill="#0A0202" transform="translate(288,327)"/>
<path d="M0,0 L11,0 L11,1 L10,1 L10,2 L7,2 L7,3 L5,3 L5,4 L2,4 L2,5 L0,5 L0,6 L-5,6 L-5,7 L-9,7 L-9,8 L-12,8 L-12,9 L-18,9 L-18,10 L-26,10 L-26,11 L-32,11 L-32,12 L-40,12 L-40,13 L-47,13 L-47,14 L-53,14 L-53,15 L-58,15 L-58,16 L-62,16 L-62,17 L-68,17 L-68,15 L-66,15 L-66,14 L-63,14 L-63,13 L-60,13 L-60,12 L-57,12 L-57,11 L-52,11 L-52,10 L-48,10 L-48,9 L-41,9 L-41,8 L-33,8 L-33,7 L-28,7 L-28,6 L-22,6 L-22,5 L-18,5 L-18,4 L-13,4 L-13,3 L-8,3 L-8,2 L-5,2 L-5,1 L0,1 Z " fill="#080202" transform="translate(400,306)"/>
<path d="M0,0 L21,0 L21,2 L15,2 L15,3 L7,3 L7,4 L1,4 L1,5 L-8,5 L-8,6 L-13,6 L-13,7 L-16,7 L-16,8 L-20,8 L-20,9 L-26,9 L-26,10 L-30,10 L-30,11 L-33,11 L-33,12 L-37,12 L-37,13 L-43,13 L-43,14 L-46,14 L-46,15 L-50,15 L-50,16 L-54,16 L-54,17 L-59,17 L-59,18 L-63,18 L-63,19 L-65,19 L-65,20 L-69,20 L-69,21 L-73,21 L-73,22 L-79,22 L-79,20 L-77,20 L-77,19 L-73,19 L-73,18 L-70,18 L-70,17 L-66,17 L-66,16 L-61,16 L-61,15 L-59,15 L-59,14 L-55,14 L-55,13 L-50,13 L-50,12 L-46,12 L-46,11 L-42,11 L-42,10 L-38,10 L-38,9 L-35,9 L-35,8 L-31,8 L-31,7 L-27,7 L-27,6 L-23,6 L-23,5 L-19,5 L-19,4 L-14,4 L-14,3 L-9,3 L-9,2 L-5,2 L-5,1 L0,1 Z " fill="#10100B" transform="translate(397,340)"/>
<path d="M0,0 L12,0 L12,2 L13,2 L13,3 L10,3 L10,4 L5,4 L5,5 L1,5 L1,6 L-4,6 L-4,7 L-8,7 L-8,8 L-13,8 L-13,9 L-20,9 L-20,10 L-26,10 L-26,11 L-30,11 L-30,12 L-36,12 L-36,13 L-41,13 L-41,14 L-46,14 L-46,13 L-47,13 L-47,12 L-49,12 L-49,11 L-47,11 L-47,10 L-43,10 L-43,9 L-34,9 L-34,8 L-30,8 L-30,7 L-23,7 L-23,6 L-18,6 L-18,5 L-13,5 L-13,4 L-11,4 L-11,3 L-7,3 L-7,2 L-3,2 L-3,1 L0,1 Z " fill="#B8B271" transform="translate(337,398)"/>
<path d="M0,0 L10,0 L10,1 L9,1 L9,2 L5,2 L5,3 L0,3 L0,4 L-4,4 L-4,5 L-6,5 L-6,6 L-12,6 L-12,7 L-15,7 L-15,8 L-20,8 L-20,9 L-24,9 L-24,10 L-27,10 L-27,11 L-31,11 L-31,12 L-34,12 L-34,13 L-38,13 L-38,14 L-42,14 L-42,15 L-46,15 L-46,16 L-50,16 L-50,17 L-52,17 L-52,18 L-57,18 L-57,19 L-59,19 L-59,20 L-62,20 L-62,21 L-65,21 L-65,22 L-68,22 L-68,20 L-67,20 L-67,19 L-65,19 L-65,18 L-62,18 L-62,17 L-60,17 L-60,16 L-56,16 L-56,15 L-54,15 L-54,14 L-51,14 L-51,13 L-47,13 L-47,12 L-42,12 L-42,11 L-40,11 L-40,10 L-36,10 L-36,9 L-32,9 L-32,8 L-27,8 L-27,7 L-23,7 L-23,6 L-21,6 L-21,5 L-17,5 L-17,4 L-11,4 L-11,3 L-6,3 L-6,2 L-2,2 L-2,1 L0,1 Z " fill="#10100C" transform="translate(277,364)"/>
<path d="M0,0 L2,0 L2,2 L1,2 L1,3 L0,3 L0,4 L-3,4 L-3,5 L-7,5 L-7,6 L-13,6 L-13,7 L-16,7 L-16,8 L-20,8 L-20,9 L-24,9 L-24,10 L-29,10 L-29,11 L-34,11 L-34,12 L-38,12 L-38,13 L-44,13 L-44,14 L-52,14 L-52,15 L-55,15 L-55,16 L-60,16 L-60,12 L-56,12 L-56,11 L-50,11 L-50,10 L-42,10 L-42,9 L-37,9 L-37,8 L-32,8 L-32,7 L-28,7 L-28,6 L-24,6 L-24,5 L-21,5 L-21,4 L-15,4 L-15,3 L-9,3 L-9,2 L-5,2 L-5,1 L0,1 Z " fill="#14130E" transform="translate(440,365)"/>
<path d="M0,0 L7,0 L7,1 L6,1 L6,2 L3,2 L3,4 L8,4 L8,3 L17,3 L17,2 L22,2 L22,1 L27,1 L27,2 L28,2 L28,3 L22,3 L22,4 L18,4 L18,5 L14,5 L14,6 L10,6 L10,7 L6,7 L6,8 L2,8 L2,9 L-2,9 L-2,10 L-6,10 L-6,11 L-10,11 L-10,10 L-11,10 L-11,7 L-10,7 L-10,6 L-8,6 L-8,5 L-7,5 L-7,3 L-9,3 L-9,2 L-3,2 L-3,1 L0,1 Z " fill="#BBB576" transform="translate(212,426)"/>
<path d="M0,0 L2,0 L2,1 L3,1 L3,2 L4,2 L4,5 L5,5 L5,7 L6,7 L6,9 L7,9 L7,11 L8,11 L8,13 L9,13 L9,14 L10,14 L10,16 L11,16 L11,17 L12,17 L12,19 L13,19 L13,20 L14,20 L14,22 L15,22 L15,23 L16,23 L16,24 L17,24 L17,25 L18,25 L18,15 L17,15 L17,11 L19,11 L19,12 L20,12 L20,14 L21,14 L21,18 L22,18 L22,27 L21,27 L21,28 L20,28 L20,29 L17,29 L17,28 L15,28 L15,27 L14,27 L14,26 L13,26 L13,25 L12,25 L12,24 L11,24 L11,22 L10,22 L10,21 L9,21 L9,19 L8,19 L8,18 L7,18 L7,16 L6,16 L6,14 L5,14 L5,12 L4,12 L4,11 L3,11 L3,8 L2,8 L2,6 L1,6 L1,4 L0,4 Z " fill="#0B0303" transform="translate(361,90)"/>
<path d="M0,0 L3,0 L3,1 L4,1 L4,8 L3,8 L3,12 L2,12 L2,15 L1,15 L1,21 L0,21 L0,23 L-1,23 L-1,26 L-2,26 L-2,28 L-3,28 L-3,29 L-6,29 L-6,27 L-7,27 L-7,21 L-6,21 L-6,19 L-5,19 L-5,14 L-4,14 L-4,11 L-3,11 L-3,8 L-2,8 L-2,5 L-1,5 L-1,2 L0,2 Z " fill="#080101" transform="translate(36,135)"/>
<path d="M0,0 L2,0 L2,1 L3,1 L3,12 L2,12 L2,16 L1,16 L1,22 L0,22 L0,26 L-1,26 L-1,28 L-2,28 L-2,29 L-5,29 L-5,28 L-6,28 L-6,19 L-5,19 L-5,14 L-4,14 L-4,11 L-3,11 L-3,8 L-2,8 L-2,4 L-1,4 L-1,2 L0,2 Z " fill="#060101" transform="translate(91,240)"/>
<path d="M0,0 L2,0 L2,1 L3,1 L3,6 L2,6 L2,10 L1,10 L1,14 L0,14 L0,16 L-1,16 L-1,18 L-2,18 L-2,20 L-3,20 L-3,22 L-4,22 L-4,27 L-5,27 L-5,28 L-7,28 L-7,27 L-8,27 L-8,26 L-9,26 L-9,19 L-8,19 L-8,17 L-7,17 L-7,15 L-6,15 L-6,12 L-5,12 L-5,10 L-4,10 L-4,8 L-3,8 L-3,6 L-2,6 L-2,4 L-1,4 L-1,1 L0,1 Z " fill="#070101" transform="translate(101,251)"/>
<path d="M0,0 L3,0 L3,1 L4,1 L4,5 L3,5 L3,7 L2,7 L2,12 L1,12 L1,15 L0,15 L0,18 L-1,18 L-1,21 L-2,21 L-2,23 L-3,23 L-3,25 L-5,25 L-5,24 L-6,24 L-6,23 L-7,23 L-7,16 L-6,16 L-6,14 L-5,14 L-5,11 L-4,11 L-4,6 L-3,6 L-3,4 L-2,4 L-2,2 L-1,2 L-1,1 L0,1 Z " fill="#040101" transform="translate(143,360)"/>
<path d="M0,0 L9,0 L9,1 L5,1 L5,2 L1,2 L1,3 L-5,3 L-5,4 L-12,4 L-12,5 L-16,5 L-16,6 L-20,6 L-20,7 L-27,7 L-27,8 L-31,8 L-31,9 L-38,9 L-38,10 L-42,10 L-42,11 L-50,11 L-50,10 L-47,10 L-47,9 L-44,9 L-44,8 L-38,8 L-38,7 L-36,7 L-36,6 L-32,6 L-32,5 L-27,5 L-27,4 L-21,4 L-21,3 L-14,3 L-14,2 L-8,2 L-8,1 L0,1 Z " fill="#E1DCA6" transform="translate(309,362)"/>
<path d="M0,0 L4,0 L4,4 L3,4 L3,7 L2,7 L2,9 L1,9 L1,11 L0,11 L0,14 L-1,14 L-1,16 L-2,16 L-2,19 L-3,19 L-3,21 L-4,21 L-4,23 L-5,23 L-5,24 L-6,24 L-6,25 L-9,25 L-9,22 L-10,22 L-10,21 L-9,21 L-9,18 L-8,18 L-8,16 L-7,16 L-7,13 L-6,13 L-6,11 L-5,11 L-5,9 L-4,9 L-4,7 L-3,7 L-3,5 L-2,5 L-2,3 L-1,3 L-1,1 L0,1 Z " fill="#060101" transform="translate(44,144)"/>
<path d="M0,0 L10,0 L10,2 L6,2 L6,3 L1,3 L1,4 L-4,4 L-4,5 L-8,5 L-8,6 L-11,6 L-11,7 L-17,7 L-17,8 L-21,8 L-21,9 L-24,9 L-24,10 L-28,10 L-28,11 L-35,11 L-35,9 L-31,9 L-31,8 L-27,8 L-27,7 L-23,7 L-23,6 L-19,6 L-19,5 L-16,5 L-16,4 L-12,4 L-12,3 L-8,3 L-8,2 L-4,2 L-4,1 L0,1 Z " fill="#12120D" transform="translate(220,421)"/>
<path d="M0,0 L3,0 L3,3 L2,3 L2,5 L1,5 L1,6 L0,6 L0,7 L-1,7 L-1,8 L-2,8 L-2,9 L-3,9 L-3,10 L-5,10 L-5,11 L-6,11 L-6,12 L-8,12 L-8,13 L-13,13 L-13,12 L-14,12 L-14,8 L-13,8 L-13,7 L-12,7 L-12,6 L-11,6 L-11,5 L-8,5 L-8,4 L-6,4 L-6,3 L-4,3 L-4,2 L-2,2 L-2,1 L0,1 Z " fill="#BEB875" transform="translate(425,344)"/>
<path d="M0,0 L4,0 L4,1 L5,1 L5,9 L4,9 L4,13 L3,13 L3,18 L2,18 L2,19 L0,19 L0,17 L-1,17 L-1,15 L-2,15 L-2,6 L-1,6 L-1,1 L0,1 Z " fill="#0D0303" transform="translate(102,271)"/>
<path d="M0,0 L4,0 L4,1 L3,1 L3,2 L22,2 L22,3 L-4,3 L-4,4 L-10,4 L-10,5 L-15,5 L-15,6 L-20,6 L-20,7 L-25,7 L-25,8 L-29,8 L-29,9 L-31,9 L-31,8 L-30,8 L-30,7 L-32,7 L-32,6 L-28,6 L-28,5 L-21,5 L-21,4 L-17,4 L-17,3 L-10,3 L-10,2 L-5,2 L-5,1 L0,1 Z " fill="#CFCA96" transform="translate(346,369)"/>
<path d="M0,0 L3,0 L3,1 L4,1 L4,12 L3,12 L3,16 L2,16 L2,19 L-1,19 L-1,17 L-2,17 L-2,6 L-1,6 L-1,1 L0,1 Z " fill="#020000" transform="translate(149,379)"/>
<path d="M0,0 L5,0 L5,1 L3,1 L3,2 L-1,2 L-1,3 L-4,3 L-4,4 L-6,4 L-6,5 L-8,5 L-8,6 L-11,6 L-11,7 L-13,7 L-13,8 L-16,8 L-16,9 L-18,9 L-18,10 L-20,10 L-20,11 L-22,11 L-22,9 L-23,9 L-23,5 L-22,5 L-22,4 L-11,4 L-11,3 L-8,3 L-8,2 L-4,2 L-4,1 L0,1 Z " fill="#AD3333" transform="translate(329,435)"/>
<path d="M0,0 L3,0 L3,2 L2,2 L2,3 L0,3 L0,4 L-5,4 L-5,5 L-10,5 L-10,6 L-14,6 L-14,7 L-19,7 L-19,8 L-24,8 L-24,5 L-20,5 L-20,4 L-16,4 L-16,3 L-13,3 L-13,2 L-9,2 L-9,1 L0,1 Z " fill="#151410" transform="translate(234,434)"/>
<path d="M0,0 L6,0 L6,1 L5,1 L5,2 L2,2 L2,3 L0,3 L0,4 L-2,4 L-2,5 L-6,5 L-6,6 L-8,6 L-8,7 L-13,7 L-13,8 L-16,8 L-16,9 L-19,9 L-19,10 L-27,10 L-27,8 L-21,8 L-21,7 L-18,7 L-18,6 L-15,6 L-15,5 L-11,5 L-11,4 L-9,4 L-9,3 L-7,3 L-7,2 L-4,2 L-4,1 L0,1 Z " fill="#0F0E09" transform="translate(211,402)"/>
<path d="M0,0 L5,0 L5,1 L6,1 L6,6 L5,6 L5,8 L4,8 L4,10 L3,10 L3,12 L2,12 L2,14 L1,14 L1,15 L-1,15 L-1,14 L-2,14 L-2,10 L-1,10 L-1,8 L0,8 L0,5 L1,5 L1,4 L0,4 L0,3 L-1,3 L-1,1 L0,1 Z " fill="#0B0202" transform="translate(47,157)"/>
<path d="M0,0 L2,0 L2,6 L3,6 L3,9 L4,9 L4,11 L5,11 L5,15 L3,15 L3,14 L2,14 L2,13 L1,13 L1,11 L0,11 L0,10 L-1,10 L-1,9 L-2,9 L-2,8 L-3,8 L-3,7 L-4,7 L-4,6 L-5,6 L-5,5 L-6,5 L-6,4 L-5,4 L-5,3 L-4,3 L-4,2 L-2,2 L-2,1 L0,1 Z " fill="#AD3333" transform="translate(77,61)"/>
<path d="M0,0 L2,0 L2,1 L1,1 L1,2 L0,2 L0,3 L-2,3 L-2,4 L-3,4 L-3,5 L-4,5 L-4,6 L-5,6 L-5,7 L-6,7 L-6,8 L-7,8 L-7,9 L-8,9 L-8,10 L-10,10 L-10,11 L-11,11 L-11,12 L-12,12 L-12,13 L-13,13 L-13,14 L-14,14 L-14,15 L-15,15 L-15,16 L-16,16 L-16,17 L-17,17 L-17,18 L-18,18 L-18,19 L-19,19 L-19,20 L-21,20 L-21,19 L-20,19 L-20,18 L-19,18 L-19,16 L-18,16 L-18,15 L-17,15 L-17,14 L-16,14 L-16,13 L-15,13 L-15,12 L-14,12 L-14,11 L-13,11 L-13,10 L-12,10 L-12,9 L-11,9 L-11,8 L-10,8 L-10,7 L-9,7 L-9,6 L-7,6 L-7,5 L-6,5 L-6,4 L-4,4 L-4,3 L-3,3 L-3,2 L-2,2 L-2,1 L0,1 Z " fill="#F6BE0A" transform="translate(100,170)"/>
<path d="M0,0 L5,0 L5,2 L2,2 L2,3 L-2,3 L-2,4 L-5,4 L-5,5 L-9,5 L-9,6 L-16,6 L-16,4 L-12,4 L-12,3 L-8,3 L-8,2 L-4,2 L-4,1 L0,1 Z " fill="#080806" transform="translate(201,426)"/>
<path d="M0,0 L3,0 L3,1 L2,1 L2,3 L1,3 L1,4 L-6,4 L-6,5 L-10,5 L-10,6 L-18,6 L-18,5 L-15,5 L-15,4 L-12,4 L-12,3 L-6,3 L-6,2 L-4,2 L-4,1 L0,1 Z " fill="#CFCA98" transform="translate(277,367)"/>
<path d="M0,0 L1,0 L1,2 L0,2 L0,3 L-1,3 L-1,6 L-2,6 L-2,9 L-3,9 L-3,10 L-5,10 L-5,9 L-6,9 L-6,8 L-8,8 L-8,7 L-9,7 L-9,6 L-10,6 L-10,5 L-11,5 L-11,4 L-4,4 L-4,3 L-2,3 L-2,2 L-1,2 L-1,1 L0,1 Z " fill="#7D211B" transform="translate(120,362)"/>
<path d="M0,0 L3,0 L3,1 L2,1 L2,2 L1,2 L1,3 L-2,3 L-2,4 L-6,4 L-6,5 L-10,5 L-10,6 L-15,6 L-15,7 L-17,7 L-17,6 L-16,6 L-16,5 L-13,5 L-13,4 L-10,4 L-10,3 L-7,3 L-7,2 L-4,2 L-4,1 L0,1 Z " fill="#B0AB6E" transform="translate(374,392)"/>
<path d="M0,0 L4,0 L4,1 L3,1 L3,2 L5,2 L5,3 L1,3 L1,4 L-3,4 L-3,5 L-9,5 L-9,3 L-7,3 L-7,2 L-3,2 L-3,1 L0,1 Z " fill="#212014" transform="translate(327,357)"/>
<path d="M0,0 L5,0 L5,2 L3,2 L3,3 L-3,3 L-3,4 L-9,4 L-9,3 L-8,3 L-8,2 L-4,2 L-4,1 L0,1 Z " fill="#D1CD9A" transform="translate(343,382)"/>
<path d="M0,0 L3,0 L3,1 L2,1 L2,3 L-1,3 L-1,4 L-9,4 L-9,2 L-3,2 L-3,1 L0,1 Z " fill="#27261D" transform="translate(193,408)"/>
<path d="M0,0 L4,0 L4,1 L3,1 L3,2 L5,2 L5,3 L-8,3 L-8,2 L-7,2 L-7,1 L0,1 Z " fill="#1C1B11" transform="translate(238,405)"/>
<path d="M0,0 L2,0 L2,1 L1,1 L1,2 L3,2 L3,3 L-1,3 L-1,4 L-8,4 L-8,2 L-4,2 L-4,1 L0,1 Z " fill="#191812" transform="translate(193,428)"/>
<path d="M0,0 L9,0 L9,1 L5,1 L5,2 L1,2 L1,3 L-2,3 L-2,2 L-8,2 L-8,1 L0,1 Z " fill="#D8D299" transform="translate(309,362)"/>
<path d="M0,0 L3,0 L3,1 L2,1 L2,2 L13,2 L13,3 L-5,3 L-5,2 L-2,2 L-2,1 L0,1 Z " fill="#D1CC95" transform="translate(330,347)"/>
<path d="M0,0 L4,0 L4,1 L3,1 L3,2 L7,2 L7,3 L0,3 L0,4 L-3,4 L-3,2 L-2,2 L-2,1 L0,1 Z " fill="#DAD59F" transform="translate(282,366)"/>
<path d="M0,0 L4,0 L4,1 L3,1 L3,2 L4,2 L4,3 L1,3 L1,4 L-2,4 L-2,2 L-4,2 L-4,1 L0,1 Z " fill="#29281F" transform="translate(208,424)"/>
<path d="M0,0 L10,0 L10,1 L9,1 L9,2 L5,2 L5,3 L2,3 L2,1 L0,1 Z " fill="#1B1A11" transform="translate(277,364)"/>
<path d="M0,0 L2,0 L2,1 L1,1 L1,2 L3,2 L3,3 L-2,3 L-2,4 L-7,4 L-7,3 L-5,3 L-5,2 L-3,2 L-3,1 L0,1 Z " fill="#A33030" transform="translate(388,419)"/>
<path d="M0,0 L2,0 L2,1 L1,1 L1,2 L3,2 L3,3 L-2,3 L-2,4 L-5,4 L-5,3 L-4,3 L-4,1 L0,1 Z " fill="#191810" transform="translate(200,406)"/>
<path d="M0,0 L1,0 L1,2 L2,2 L2,5 L-8,5 L-8,4 L-1,4 L-1,3 L0,3 Z " fill="#6E3232" transform="translate(360,141)"/>
</svg>
